<svg width="32" height="32" viewBox="0 0 32 32" fill="none" xmlns="http://www.w3.org/2000/svg">
<path d="M19.1563 22.2111C18.6971 22.0771 18.4292 22.4409 18.1039 22.6132C13.8174 25.0066 9.60746 24.8534 5.51235 22.2303C0.575256 19.0902 -1.33835 12.8101 0.97711 7.44899C3.96233 0.556161 12.0951 -2.08609 18.3526 1.8007C22.5243 4.38551 24.878 8.6361 24.0743 14.0163C23.8447 15.5289 23.4619 17.0224 22.4669 18.2861C22.2755 18.5158 22.2372 18.8796 22.1416 19.1668C21.5675 20.622 20.5341 21.5793 19.1563 22.2111Z" fill="#276B8F"/>
<path d="M26.0071 22.8047C27.9972 24.2599 29.796 25.8873 31.5183 27.6488C32.2263 28.3573 32.1306 29.2763 31.3843 29.9847C30.925 30.4251 30.4849 30.8846 30.0257 31.325C29.1454 32.2058 28.0355 32.2441 27.1935 31.325C25.6818 29.6401 24.2083 27.9169 22.7348 26.2128C22.6009 25.9256 22.6391 25.6384 22.8305 25.4087C23.5959 24.4896 24.4379 23.6472 25.3756 22.8813C25.5669 22.7664 25.7775 22.7281 26.0071 22.8047Z" fill="#276B8F"/>
<path d="M26.0071 22.8047C24.8781 23.8961 23.6151 24.8725 22.754 26.2128C21.5484 24.8725 20.3619 23.5323 19.1564 22.192C20.1514 21.1772 21.1465 20.1816 22.1416 19.1668C23.4428 20.3922 24.9163 21.3878 26.0071 22.8047Z" fill="#83C3E6"/>
<path d="M9.99016 22.2877C7.96174 21.9048 6.14382 20.9283 4.74689 19.5114C2.66106 17.3861 1.60858 14.6865 1.7808 11.6613C1.97216 8.11912 3.5796 5.2854 6.58395 3.42817C11.0426 0.690182 16.0563 1.26458 19.6539 5.01735C23.2706 8.8084 23.3662 14.0929 20.6298 18.018C18.6396 20.8709 15.8649 22.3643 12.363 22.46C11.8272 22.4792 11.2723 22.46 10.7365 22.46C10.4494 22.5175 10.2389 22.326 9.99016 22.2877Z" fill="white"/>
<path d="M9.99023 22.2877C10.2773 22.2303 10.5069 22.3452 10.7365 22.4601C10.4112 22.6898 10.2007 22.4601 9.99023 22.2877Z" fill="#15526A"/>
<path d="M19.1755 10.053C19.1755 10.4742 18.8885 10.6082 18.678 10.7805C17.7786 11.489 16.8983 12.2166 15.9607 12.8867C15.5205 13.2122 15.444 13.5185 15.6162 14.0164C15.9606 15.0503 16.2094 16.1033 16.4965 17.1373C16.5921 17.5011 16.86 17.884 16.4391 18.1712C16.0755 18.4201 15.7884 18.0946 15.5014 17.9223C14.5637 17.3096 13.6069 16.7352 12.7267 16.065C12.2483 15.7204 11.923 15.7779 11.4637 16.0842C10.5069 16.7735 9.51181 17.3862 8.51674 18.0372C8.26797 18.1903 8.00007 18.3627 7.73216 18.152C7.44512 17.9414 7.55994 17.6351 7.63648 17.367C7.94266 16.2948 8.21056 15.2226 8.57414 14.1695C8.78464 13.5377 8.7081 13.1547 8.13402 12.7527C7.19635 12.1017 6.31609 11.355 5.4167 10.6657C5.18707 10.4934 4.91916 10.3019 5.07225 9.97638C5.2062 9.67003 5.47411 9.63175 5.78029 9.6126C6.96672 9.57431 8.13402 9.51686 9.32045 9.49771C9.85626 9.49771 10.1624 9.32539 10.3538 8.77014C10.6791 7.73621 11.1001 6.74058 11.4828 5.7258C11.6168 5.38116 11.655 4.90249 12.1526 4.92164C12.6501 4.94079 12.6693 5.4386 12.8032 5.76409C13.1668 6.68314 13.5112 7.60218 13.8174 8.54037C14.0279 9.19136 14.3341 9.51686 15.0804 9.49771C16.1903 9.47857 17.3002 9.55516 18.4292 9.6126C18.7545 9.63175 19.1181 9.63174 19.1755 10.053Z" fill="#FDD303"/>
</svg>
