<svg width="38" height="22" viewBox="0 0 38 22" fill="none" xmlns="http://www.w3.org/2000/svg">
<path d="M0.573402 12.5239C0.580626 12.3357 0.58785 12.139 0.595074 11.9508C0.732329 11.7968 0.905704 11.831 1.07185 11.8225C1.69311 11.8139 2.31437 11.8225 2.94285 11.8225C3.08733 11.8225 3.23181 11.8481 3.39796 11.754C3.27516 11.6343 3.14513 11.6599 3.02954 11.6599C2.34327 11.6599 1.66422 11.6599 0.977943 11.6599C0.847912 11.6599 0.710657 11.6942 0.58785 11.6172C0.58785 9.41013 0.58785 7.19453 0.58785 4.98748C0.58785 3.00285 1.62087 1.77957 3.28238 1.77957C8.66421 1.77957 14.046 1.77957 19.4207 1.77957C19.5796 1.77957 19.7674 1.85656 19.8469 1.59137C20.0708 1.69402 20.3092 1.72824 20.5476 1.72824C23.6539 1.71969 26.7674 1.74535 29.8737 1.71113C30.011 1.71113 30.1338 1.7539 30.2638 1.76246C31.9036 1.76246 33.5507 1.77101 35.1905 1.77101C36.4692 1.77957 37.2349 2.73767 37.1771 4.2518C37.0037 4.42289 36.787 4.36301 36.592 4.37156C36.3752 4.38012 36.1585 4.3459 35.949 4.44C35.624 4.59398 35.4289 4.86772 35.4072 5.304C35.3928 5.67184 35.4578 6.03968 35.3422 6.39896C35.2122 6.62138 35.1905 6.87801 35.1905 7.13465C35.205 8.83698 35.1544 10.5479 35.2122 12.2502C35.2194 12.4726 35.1255 12.7036 35.2483 12.9089C35.2772 12.9346 35.3061 12.9517 35.3422 12.9773C35.465 13.0714 35.6023 13.1484 35.4145 13.3537C35.2122 13.5676 35.5806 13.7472 35.4578 13.9868C35.5734 13.8841 35.6023 13.7643 35.5806 13.6189C35.53 13.3024 35.6817 13.1826 35.9057 13.1912C36.1946 13.2083 36.4836 13.2083 36.7653 13.2425C37.1265 13.2938 37.0904 13.5761 37.1049 13.867C37.1193 14.1921 36.9893 14.3375 36.722 14.3546C36.5992 14.3631 36.4836 14.3546 36.3608 14.346C36.0935 14.3289 35.9129 14.5599 35.9852 14.8764C36.0863 15.3469 36.0285 15.8088 36.0357 16.2793C36.0357 16.459 35.9996 16.6386 35.7973 16.6215C35.5951 16.613 35.6312 16.4162 35.6384 16.2708C35.6456 15.9543 35.6456 15.6463 35.6312 15.3298C35.5878 15.9029 35.6817 16.4932 35.4723 17.0407C35.689 16.7071 35.7901 16.6728 35.9057 16.9808C36.0646 17.4 36.3319 17.3829 36.6281 17.4C36.7942 17.4085 37.0832 17.3144 37.0832 17.554C37.0832 17.7764 36.787 17.6823 36.6209 17.6994C36.4908 17.7165 36.3608 17.7165 36.2235 17.7336C36.1874 17.7336 36.1441 17.7336 36.108 17.7165C35.7106 17.7421 35.3278 17.6053 34.9305 17.6823C34.8221 17.6994 34.6993 17.6908 34.6487 17.554C34.5982 17.4256 34.6848 17.3486 34.7571 17.2631C34.8221 17.1861 34.916 17.1177 34.8221 16.9808C34.6848 16.7755 34.7065 16.5274 34.7065 16.2879C34.7065 12.7036 34.7065 9.11928 34.7065 5.53497C34.7065 5.26122 34.721 5.00459 34.8293 4.74796C34.8943 4.59398 34.9666 4.37156 34.6993 4.35445C34.6198 4.3459 34.5476 4.30313 34.4681 4.28602C32.8933 4.26891 31.3257 4.28602 29.7509 4.27746C29.6642 4.27746 29.5847 4.27746 29.5053 4.32024C29.4114 4.40578 29.433 4.52554 29.433 4.6453C29.433 4.69663 29.433 4.74796 29.433 4.79928C29.433 6.83524 29.433 8.87975 29.433 10.9157C29.433 11.1296 29.4692 11.3434 29.3464 11.5402C29.2091 11.6599 29.0502 11.6343 28.8912 11.6343C26.4857 11.6343 24.0801 11.6343 21.6745 11.6343C21.5301 11.6343 21.3856 11.6514 21.2555 11.5573C21.0966 11.3605 21.1327 11.1039 21.1327 10.8644C21.1255 9.19627 21.1255 7.52815 21.1327 5.86003C21.1327 5.40665 21.0822 4.97893 20.8727 4.59398C20.7499 4.22614 20.4465 4.19192 20.2008 4.21758C19.2545 4.32023 18.3009 4.24324 17.3546 4.26891C16.6683 4.28602 15.9821 4.28602 15.2958 4.26035C15.173 4.26035 15.0574 4.24324 14.9563 4.3459C14.8118 4.58542 14.5951 4.7394 14.465 4.99604C14.3783 5.15002 14.4 5.32966 14.4 5.49219C14.4 6.39041 14.4217 7.28007 14.3928 8.17829C14.3639 9.08506 14.3422 9.98327 14.3928 10.89C14.4072 11.1467 14.3784 11.4033 14.1616 11.5573C13.9521 11.6428 13.7426 11.6685 13.5476 11.506C13.4031 11.1552 13.4826 10.7788 13.4754 10.411C13.4754 10.103 13.3887 9.99183 13.1214 9.99183C10.1307 10.0004 7.13274 10.0004 4.14203 9.99183C3.84585 9.99183 3.77361 10.1373 3.78083 10.4538C3.79528 11.1638 3.78083 11.8738 3.78806 12.5924C3.78806 13.0629 3.81695 13.0885 4.22872 13.0885C6.74987 13.0885 9.27825 13.0971 11.7994 13.0885C11.9078 13.0714 12.0233 13.08 12.1317 13.0885C12.464 13.1056 12.8035 13.08 13.1358 13.0971C13.4103 13.1142 13.4898 12.9688 13.4826 12.6694C13.4754 12.4127 13.4176 12.1304 13.5765 11.8909C13.851 11.7626 14.1255 11.7369 14.3928 11.9166C14.5012 12.1048 14.4867 12.3272 14.4867 12.5325C14.4867 14.0381 14.4867 15.5351 14.4867 17.0407C14.4867 17.2545 14.5012 17.4684 14.4 17.6566C14.3133 17.7507 14.205 17.7678 14.0966 17.7678C13.1286 17.7764 12.1534 17.7849 11.1854 17.7593C11.1348 17.7593 11.0915 17.7422 11.0481 17.725C10.8603 17.5454 10.9759 17.4342 11.1131 17.3486C11.2576 17.2545 11.4165 17.2717 11.5755 17.2717C12.2473 17.2717 12.9263 17.2631 13.5982 17.2717C13.8943 17.2802 14.0027 17.1433 13.9955 16.7926C13.981 15.9799 13.9883 15.1673 13.9883 14.3546C13.9883 14.1407 13.9738 13.9269 13.8438 13.7558C13.7643 13.6531 13.721 13.3794 13.5404 13.6446C13.1142 13.3708 12.6807 13.8413 12.2473 13.6104C12.0739 13.5163 11.8644 13.5505 11.6766 13.5847C11.3154 13.6531 10.9614 13.6446 10.6147 13.4649C10.4702 13.3879 10.3618 13.4393 10.2896 13.6104C10.1812 13.867 9.98619 13.9183 9.76948 13.867C9.48052 13.8071 9.19156 13.8071 8.9026 13.8328C8.33191 13.8841 8.33191 13.8841 8.05018 13.3452C8.03573 13.6189 7.94182 13.8071 7.71788 13.867C7.49394 13.9269 7.26277 13.9012 7.03883 13.8841C6.76432 13.867 6.81489 13.4649 6.58372 13.3708C6.56927 13.6702 6.44647 13.9098 6.20085 13.867C5.52902 13.7472 4.8572 14.0039 4.1926 13.8157C3.82417 13.713 3.52077 13.5334 3.36184 13.0971C3.26793 12.8832 3.42686 12.6608 3.34739 12.37C3.3185 12.6608 3.3185 12.8747 3.35462 13.0971C3.33295 13.2767 3.30405 13.4649 3.22459 13.6275C3.15957 13.7472 3.06566 13.7986 2.94285 13.7472C2.84172 13.6959 2.78393 13.5847 2.82005 13.4735C2.94285 13.1228 2.76948 12.8062 2.7767 12.4641C2.78393 12.2245 2.66112 12.1048 2.48775 12.1304C2.18434 12.1732 1.82314 11.9166 1.59198 12.3101C1.50529 12.4555 1.56308 12.6694 1.66422 12.8319C1.72201 12.926 1.79425 13.003 1.82314 13.1142C1.87371 13.3195 1.94595 13.5419 1.71478 13.6617C1.54141 13.7472 1.30302 13.5505 1.25968 13.3024C1.23078 13.1484 1.25968 12.9859 1.24523 12.8319C1.238 12.7207 1.20189 12.6095 1.16577 12.5068C1.13687 12.4298 1.09353 12.3443 1.00684 12.37C0.941823 12.3956 0.941823 12.4812 0.934599 12.5496C0.927375 12.6523 0.941823 12.7464 0.956271 12.849C1.01406 13.2083 0.884032 13.5334 0.82624 13.7729C0.855136 13.559 1.01406 13.2682 0.970719 12.9346C0.956271 12.849 1.00684 12.7635 1.09353 12.7549C1.20189 12.7464 1.24523 12.8405 1.24523 12.9431C1.25245 13.1826 1.2958 13.4307 1.27412 13.6702C1.238 14.0637 1.31747 14.4658 1.22356 14.8508C1.0863 15.0218 0.963495 15.21 0.891256 15.4667C1.06463 15.3041 1.05018 15.0475 1.19466 14.8935C1.33914 14.7481 1.28857 14.5599 1.2669 14.3803C1.24523 14.2006 1.25968 14.0381 1.38971 13.9183C1.47639 13.8413 1.57031 13.7472 1.68589 13.7986C1.80147 13.8499 1.83759 13.9782 1.84482 14.1065C1.86649 14.4401 1.88816 14.7481 1.65699 15.0561C1.50529 15.2614 1.40415 15.595 1.35359 15.9543C1.4475 15.7575 1.54141 15.6292 1.70034 15.749C1.87371 15.8858 1.9315 16.0911 1.82314 16.305C1.70756 16.5445 1.62087 16.7755 1.6281 17.0664C1.63532 17.3743 1.7509 17.4941 1.98929 17.4256C2.9862 17.1605 3.99033 17.2631 4.99445 17.3401C5.26174 17.3572 5.54347 17.323 5.81076 17.3743C5.86855 17.3829 5.94079 17.4085 5.96969 17.323C6.11416 16.861 6.46091 16.6215 6.72097 16.2879C6.95936 15.9799 7.32056 16.0142 7.5734 15.7148C7.49394 15.6207 7.2411 15.6378 7.32056 15.3982C7.3928 15.1929 7.58062 15.2271 7.73233 15.2271C7.754 15.2271 7.78289 15.2271 7.80457 15.2357C8.36081 15.7148 9.10487 15.5522 9.66834 16.0142C9.75503 16.0826 9.84172 16.0997 9.93563 16.0313C10.0873 15.9286 10.2607 15.9286 10.4269 15.9286C10.5858 15.9286 10.7014 16.0313 10.7447 16.2195C10.7808 16.3906 10.6941 16.4932 10.5786 16.5531C10.3546 16.6728 10.3691 16.8012 10.528 16.9894C10.6436 17.1262 10.7664 17.2802 10.7303 17.5112C10.5858 17.6481 10.5208 17.477 10.4485 17.3914C10.3691 17.2888 10.2968 17.1776 10.1957 17.1006C9.95008 16.8953 9.76948 16.6044 9.50219 16.4333C8.46917 15.7832 7.0894 16.0997 6.45369 17.3315C6.33811 17.554 6.2153 17.7593 5.97691 17.8191C4.88609 17.8705 3.8025 17.8705 2.71169 17.8277C2.55276 17.7764 2.40106 17.725 2.23491 17.7935C2.16989 17.802 2.1121 17.802 2.04709 17.7849C1.70756 17.7422 1.36081 17.7764 1.02129 17.7593C0.869584 17.7507 0.710657 17.7764 0.58785 17.6309C0.58785 17.0407 0.580626 16.4504 0.580626 15.8687C0.450595 15.6549 0.472267 15.4153 0.472267 15.1844C0.472267 14.6968 0.45782 14.2092 0.479491 13.713C0.493939 13.3452 0.392804 12.9174 0.573402 12.5239Z" fill="#609775"/>
<path d="M30.2781 1.76246C30.0687 1.89078 29.8447 1.85656 29.6208 1.85656C26.5145 1.85656 23.4082 1.85656 20.3019 1.85656C20.1213 1.85656 19.8973 1.925 19.854 1.59137C19.8901 1.18076 19.9479 0.778699 19.9696 0.368086C19.984 0.0857893 20.0852 0.000245918 20.3308 0.000245918C21.3421 0.0173548 22.3463 0.00880088 23.3576 0.00880088C24.9035 0.00880088 26.4567 0.0173548 28.0026 0.000245918C28.6022 -0.00830852 29.1006 0.205552 29.498 0.761591C29.7436 1.11232 30.0109 1.42884 30.2781 1.76246Z" fill="#3B664B"/>
<path d="M34.8799 19.2135C33.1606 19.2135 31.4413 19.222 29.7148 19.2135C29.462 19.2135 29.3536 19.2648 29.2886 19.5984C29.0285 20.8645 28.0822 21.7028 26.9914 21.7028C25.8717 21.7028 24.9254 20.873 24.6653 19.5899C24.5931 19.2477 24.4775 19.2135 24.2319 19.2135C23.0399 19.222 21.848 19.2135 20.656 19.2049C20.6632 19.0681 20.7571 19.0595 20.8366 19.0253C21.8769 18.974 22.9171 18.9996 23.9573 19.0082C24.2824 19.0082 24.4775 18.9397 24.4991 18.5035C24.5136 18.281 24.5786 18.0586 24.6075 17.8362C24.6147 17.7849 24.6292 17.7421 24.6436 17.6993C25.012 16.8952 25.5249 16.2622 26.2835 16.0312C27.4321 15.6805 28.7035 16.1767 29.3175 17.8106C29.3825 18.0586 29.4403 18.3067 29.4331 18.5633C29.4186 18.9397 29.5992 19.0082 29.8665 19.0082C30.8129 18.9996 31.7592 19.0082 32.7055 19.0082C33.3557 19.0082 33.9986 19.0082 34.6488 19.0082C34.7355 18.9911 34.8149 19.0082 34.8799 19.0852C34.9088 19.1279 34.9088 19.1707 34.8799 19.2135Z" fill="#5B5B5B"/>
<path d="M6.07088 17.7678C6.42485 17.3572 6.62712 16.8012 7.08223 16.4761C8.01412 15.8089 9.23496 15.9286 10.0224 16.8354C10.1018 16.9209 10.1813 17.0065 10.2608 17.0835C10.398 17.3572 10.6075 17.5625 10.7231 17.8534C10.7664 18.0501 10.817 18.2383 10.8459 18.4265C10.947 18.9997 10.947 18.9997 11.4455 18.9997C12.5363 19.0082 13.6271 18.974 14.7107 19.0168C14.7541 19.0253 14.7974 19.0424 14.8335 19.0595C14.8769 19.0852 14.8913 19.128 14.8841 19.1879C13.6199 19.1879 12.3557 19.1964 11.0915 19.1879C10.8387 19.1879 10.752 19.2648 10.687 19.5643C10.3763 20.9586 9.37222 21.7884 8.15137 21.6943C7.06056 21.6088 6.17201 20.5908 5.99141 19.2221C5.96974 19.1879 5.94807 19.1536 5.93362 19.1109C5.83971 18.6489 5.95529 18.2127 6.07088 17.7678Z" fill="#5B5B5B"/>
<path d="M14.8913 19.1365C14.8697 19.1365 14.8408 19.128 14.8191 19.128C14.3929 18.9398 14.2412 18.5463 14.3062 17.802C14.3206 17.7593 14.3423 17.7165 14.364 17.6823C14.364 15.7746 14.364 13.867 14.3712 11.9594C14.2773 11.8139 14.2628 11.6514 14.299 11.4803C14.3568 11.3007 14.3495 11.121 14.3423 10.9328C14.3062 9.05941 14.364 7.18598 14.3423 5.31256C14.3423 5.15858 14.2773 4.96183 14.4579 4.85918C14.5662 4.64531 14.7468 4.517 14.8913 4.34591C15.0141 4.20904 15.1658 4.20904 15.332 4.20904C16.8346 4.21759 18.3371 4.20904 19.8469 4.21759C20.0348 4.21759 20.2226 4.14916 20.4176 4.20049C20.6271 4.25181 20.8077 4.3288 20.945 4.53411C21.1834 4.88484 21.2484 5.2869 21.2484 5.72317C21.2412 7.65648 21.2484 9.58978 21.2484 11.5145C21.2917 11.5744 21.3206 11.6428 21.3351 11.7198C21.3568 11.8225 21.3495 11.9251 21.3568 12.0364C21.3712 13.9183 21.3712 15.7918 21.3568 17.6652C21.3495 17.9133 21.3495 18.1699 21.3062 18.418C21.2412 18.7516 21.1184 19.0253 20.8077 19.1194C20.7644 19.1451 20.7138 19.1708 20.6705 19.1964C20.6271 19.205 20.5766 19.2221 20.5332 19.2306C20.4827 19.2221 20.5477 19.2392 20.4971 19.2221C20.3671 19.1793 20.1359 19.282 20.1142 19.1109C20.0853 18.8799 20.3598 18.974 20.461 18.8457C20.945 18.5634 20.8583 18.033 20.8439 17.5454C20.8294 13.6788 20.8439 9.8122 20.8366 5.93704C20.8366 5.66329 20.8439 5.39811 20.7861 5.13292C20.7283 4.77363 20.5188 4.69664 20.2515 4.69664C18.655 4.69664 17.0513 4.69664 15.4548 4.69664C14.9202 4.69664 14.7757 4.88484 14.7757 5.52642C14.7757 9.5299 14.7757 13.5334 14.7757 17.5369C14.7757 17.5882 14.7757 17.631 14.7757 17.6823C14.7035 18.2041 14.8408 18.6318 15.202 18.9483C15.1586 19.1964 15.043 19.2135 14.8913 19.1365Z" fill="#264931"/>
<path d="M34.8799 19.1451C34.8365 19.1194 34.786 19.0938 34.7426 19.0681C34.4175 18.7944 34.4031 18.2126 34.7137 17.7678C35.1977 17.5026 35.6962 17.6566 36.1946 17.6823C36.2163 17.6823 36.2452 17.6823 36.2669 17.6823C36.5775 17.6224 36.8954 17.6138 37.206 17.6823C37.7478 17.6994 37.95 17.8705 37.9934 18.3153C38.044 18.9654 37.8056 19.2306 37.1988 19.2135C36.5558 19.1451 35.9129 19.205 35.2772 19.1793C35.1399 19.1707 35.0027 19.2135 34.8799 19.1451Z" fill="#B9BBBC"/>
<path d="M35.3352 6.3819C35.2774 5.98839 35.2991 5.59489 35.3207 5.20138C35.3424 4.67956 35.7397 4.2775 36.2237 4.26039C36.5488 4.25184 36.8667 4.26039 37.1917 4.26039C37.1917 4.97041 37.1917 5.68043 37.199 6.39045C37.1628 6.42467 37.1267 6.45889 37.0906 6.476C36.5199 6.53588 35.9492 6.5872 35.3857 6.44178C35.3641 6.42467 35.3496 6.40756 35.3352 6.3819Z" fill="#213929"/>
<path d="M5.99868 19.1366C5.99868 19.1708 5.99868 19.205 5.99146 19.2392C4.17103 19.2392 2.34337 19.2136 0.522936 19.2392C0.132843 19.2478 0.0172597 19.1109 0.0678273 18.6746C0.0822751 18.5463 0.0678273 18.418 0.0678273 18.2897C0.0678273 17.6823 0.0678273 17.6823 0.573503 17.6823C1.07918 17.7336 1.59208 17.5968 2.09053 17.7593C2.46618 18.0844 2.45895 18.5121 2.27113 19.0168C3.00075 19.0168 3.69424 19.0168 4.38774 19.0168C4.77061 19.0168 5.15348 19.0168 5.54357 19.0168C5.70972 19.0168 5.86865 18.9997 5.99868 19.1366Z" fill="#737274"/>
<path d="M37.2061 17.6823C36.8955 17.6823 36.5776 17.6823 36.267 17.6823C36.5126 17.4855 36.8016 17.6823 37.1339 17.5283C36.6643 17.5112 36.2742 17.5369 35.8769 17.4428C36.137 17.1605 35.7685 17.0749 35.7613 16.8439C35.5446 16.9723 35.6746 17.2888 35.4579 17.3914C35.3568 17.2631 35.364 17.0835 35.4146 16.9637C35.6168 16.4419 35.5157 15.903 35.5446 15.364C35.5518 15.2357 35.494 15.0133 35.6602 15.0219C35.8119 15.0304 35.7613 15.2443 35.7613 15.3811C35.7685 15.7062 35.7613 16.0398 35.7613 16.3649C35.7613 16.4419 35.7035 16.5445 35.8191 16.5617C35.9275 16.5788 35.9853 16.5018 35.978 16.3906C35.9202 15.8859 36.1081 15.3726 35.8769 14.8764C35.7758 14.6626 36.0936 14.2006 36.3031 14.2348C36.3826 14.2434 36.4693 14.2605 36.5559 14.2605C37.0761 14.2776 37.1916 14.1151 37.0327 13.5248C36.946 13.2169 36.6571 13.3281 36.5054 13.3452C36.2309 13.3708 35.7469 13.1399 35.7324 13.4136C35.718 13.7729 35.6385 14.0295 35.4796 14.3375C35.3568 14.0466 35.4868 13.6959 35.2412 13.4649C35.1401 13.3708 35.3351 13.311 35.3712 13.2939C35.6313 13.157 35.3351 13.1313 35.3495 13.0543C35.4218 12.9602 35.5157 12.9517 35.6096 12.9431C36.0503 12.9346 36.4837 12.9346 36.9244 12.9431C37.0327 12.9431 37.1339 12.9688 37.2205 13.0629C37.2205 13.5419 37.2133 14.0124 37.2133 14.4915C37.0399 14.7139 36.816 14.6369 36.6065 14.6369C36.3464 14.6369 36.2453 14.7652 36.2525 15.0732C36.2525 15.5522 36.2742 16.0313 36.2381 16.5103C36.1442 17.0749 36.1803 17.1262 36.6643 17.1348C36.8521 17.1434 37.0544 17.0749 37.2133 17.2546C37.1916 17.4 37.1989 17.5454 37.2061 17.6823Z" fill="#619776"/>
<path d="M36.1152 16.5702C36.1152 16.0056 36.1224 15.441 36.1007 14.8764C36.0935 14.5684 36.1874 14.4829 36.433 14.5C36.6859 14.5171 36.9315 14.5 37.1843 14.5C37.1843 15.2015 37.1843 15.8944 37.1915 16.5958C36.8303 16.7413 36.4691 16.7669 36.1152 16.5702Z" fill="#D1E5E6"/>
<path d="M14.8914 19.1365C15.0142 19.1451 15.1153 19.1194 15.1731 18.9654C15.3103 18.8029 15.4837 18.8286 15.6499 18.8286C17.1163 18.82 18.5828 18.82 20.042 18.8286C20.2082 18.8286 20.3816 18.8029 20.5188 18.9654C20.4321 19.1194 20.266 18.9997 20.1576 19.0938C20.266 19.205 20.4466 19.0595 20.5333 19.2477C20.4177 19.3504 20.2804 19.3076 20.1504 19.3076C18.5972 19.3076 17.0441 19.3076 15.4982 19.3162C15.2887 19.3162 15.0936 19.2905 14.8986 19.205C14.8914 19.1793 14.8914 19.1622 14.8914 19.1365Z" fill="#2B4737"/>
<path d="M0.595215 11.6086C0.783037 11.4718 0.992531 11.5317 1.1948 11.5317C1.89552 11.5231 2.58902 11.5231 3.28974 11.5317C3.41977 11.5317 3.6076 11.4547 3.61482 11.7284C3.62205 12.0107 3.44145 11.9508 3.31142 11.9508C2.40842 11.9508 1.50543 11.9508 0.602439 11.9423C0.595215 11.8396 0.595215 11.7284 0.595215 11.6086Z" fill="#3C684D"/>
<path d="M0.580563 13.7473C0.580563 14.4658 0.580563 15.193 0.580563 15.9115C0.414412 15.8944 0.241038 15.9543 0.0748872 15.8688C0.00987176 15.2272 0.0532157 14.5771 0.0532157 13.9355C0.0459918 13.619 0.22659 13.5676 0.580563 13.7473Z" fill="#D15D49"/>
<path d="M0.580663 13.7472C0.0822112 13.7472 0.0822117 13.7472 0.0822117 14.3375C0.0822117 14.8507 0.0822112 15.3555 0.0749873 15.8687C-0.0478197 15.7233 0.0171961 15.5436 0.0171961 15.3897C0.00997216 14.654 0.00997216 13.9098 0.0171961 13.1741C0.02442 12.4641 -0.0694915 12.5068 0.580663 12.5325C0.573439 12.9345 0.573439 13.3452 0.580663 13.7472Z" fill="#DE904D"/>
<path d="M37.1989 13.0715C36.5777 13.0715 35.9492 13.0629 35.3279 13.0629C35.3063 13.003 35.3135 12.9603 35.364 12.926C35.7541 12.7721 36.1515 12.8662 36.5415 12.849C36.975 12.8234 37.0111 12.8063 37.0111 12.2759C37.0183 10.5393 37.0111 8.80279 37.0111 7.05769C37.0111 6.83527 36.975 6.59575 37.1195 6.40755C37.1411 6.39899 37.17 6.39044 37.1917 6.39044C37.1989 8.6146 37.1989 10.8387 37.1989 13.0715Z" fill="#C2CBC6"/>
<path d="M36.1152 16.5702C36.4764 16.5787 36.8304 16.5787 37.1916 16.5873C37.2133 16.8097 37.2277 17.0321 37.1844 17.2631C36.9604 17.2631 36.7293 17.2631 36.5053 17.2631C36.0719 17.2631 35.9852 17.1091 36.1152 16.5702Z" fill="#CC9B65"/>
<path d="M34.8799 19.1451C35.5734 19.1451 36.2669 19.1365 36.9604 19.1365C37.0398 19.1365 37.1265 19.1194 37.1915 19.205C36.4186 19.205 35.6528 19.205 34.8799 19.205C34.8871 19.1879 34.8799 19.1707 34.8799 19.1451Z" fill="#A6ABAA"/>
<path d="M1.15853 14.9448C1.15853 14.2519 1.15853 13.559 1.15853 12.8661C1.12241 12.8575 1.08629 12.8575 1.05017 12.849C1.07906 13.3024 0.819002 13.6959 0.934585 14.2263C0.746763 13.9525 0.660076 13.7301 0.840674 13.4392C0.927361 13.2938 0.876793 13.08 0.862346 12.9003C0.855122 12.8319 0.819002 12.7634 0.811778 12.695C0.790106 12.4897 0.768434 12.2331 0.963481 12.1903C1.1513 12.1475 1.23799 12.4042 1.29578 12.5924C1.32468 12.6779 1.30301 12.7891 1.30301 12.8918C1.30301 12.9944 1.30301 13.0885 1.30301 13.1912C1.30301 13.4221 1.38969 13.5676 1.58474 13.6189C1.6642 13.6446 1.75811 13.6445 1.76534 13.5505C1.77979 13.3537 1.77256 13.1484 1.62808 13.0115C1.5414 12.926 1.46193 12.8661 1.44748 12.7207C1.37525 12.1646 1.46193 12.0363 1.93871 12.0363C2.06874 12.0363 2.206 12.0363 2.33603 12.0363C2.82726 12.0363 2.80559 12.0363 2.84893 12.6351C2.87783 12.9516 3.07287 13.2425 2.8706 13.5761C2.82003 13.6531 2.90672 13.7301 2.98618 13.7386C3.08732 13.7472 3.15956 13.6788 3.16678 13.5761C3.17401 13.3794 3.22457 13.2168 3.32571 13.0714C3.77359 13.8242 4.44542 13.8755 5.11725 13.8156C5.44232 13.79 5.75295 13.7215 6.07803 13.8242C6.22973 13.8755 6.36699 13.8242 6.4609 13.6702C6.54759 13.5162 6.4609 13.4478 6.35976 13.3708C6.69929 13.3109 6.69929 13.3109 6.86544 13.6873C6.89433 13.7558 6.91601 13.8242 6.98102 13.8242C7.23386 13.8242 7.49392 13.8584 7.73231 13.8071C7.88401 13.7729 8.04294 13.6103 7.90569 13.3366C8.02127 13.4136 8.3319 13.0971 8.25966 13.636C8.23076 13.8327 8.42581 13.8584 8.55584 13.8242C8.9965 13.713 9.42994 13.713 9.8706 13.8242C10.0584 13.8755 10.2029 13.7643 10.2173 13.559C10.2462 13.1912 10.4774 13.2767 10.593 13.3537C10.9181 13.559 11.2287 13.5676 11.5899 13.5077C11.8861 13.4564 12.2112 13.4221 12.5073 13.6189C12.7096 13.7472 12.8685 13.482 13.078 13.4564C13.2731 13.4392 13.4176 13.3879 13.5115 13.6788C13.5765 13.5162 13.627 13.405 13.6632 13.3195C14.1761 13.7814 14.1038 14.4401 14.0966 15.0731C14.0894 15.7318 14.0822 16.382 14.0966 17.0407C14.1038 17.3401 14.0099 17.4342 13.7643 17.4256C12.9841 17.4085 12.2039 17.4171 11.4237 17.4256C11.2504 17.4256 11.0481 17.3914 10.9903 17.6822C10.8675 17.7678 10.7591 17.8277 10.7013 17.5967C10.6363 17.323 10.5063 17.1091 10.3185 16.9466C10.1596 16.8011 10.174 16.7413 10.3474 16.6215C10.463 16.5445 10.6797 16.5531 10.6797 16.305C10.6797 16.2023 10.593 16.0826 10.5208 16.0911C10.3185 16.1168 10.0656 15.997 9.92839 16.2109C9.82003 16.382 9.82003 16.305 9.71167 16.2365C9.37937 16.0141 9.07596 15.6976 8.62086 15.8345C8.45471 15.8858 8.24521 15.7233 8.10073 15.5522C7.92736 15.3554 7.71064 15.3554 7.49392 15.3725C7.42891 15.3725 7.36389 15.4068 7.35667 15.4838C7.34944 15.595 7.42891 15.6121 7.50115 15.6206C7.55171 15.6292 7.59506 15.6206 7.64562 15.6292C7.72509 15.6292 7.79733 15.6548 7.7901 15.766C7.7901 15.8601 7.74676 15.9286 7.65285 15.9115C7.50115 15.8858 7.41446 16.0483 7.29888 16.074C6.74263 16.1938 6.51869 16.7926 6.11415 17.1348C6.08525 17.1604 6.03469 17.2032 6.03469 17.2118C6.28752 17.9902 5.68071 17.2716 5.63737 17.5283C5.31952 17.3058 4.96554 17.494 4.63324 17.4427C3.91085 17.3401 3.16678 17.3999 2.43716 17.4171C2.206 17.4256 2.00373 17.6395 1.75089 17.5881C1.58474 17.5539 1.50528 17.5026 1.51972 17.3058C1.53417 16.9722 1.44748 16.6215 1.70755 16.3478C1.77256 16.2793 1.82313 16.1596 1.77256 16.0398C1.72922 15.9371 1.70032 15.8174 1.58474 15.8088C1.43304 15.8003 1.46193 15.9457 1.45471 16.0569C1.44748 16.1253 1.43304 16.1852 1.41859 16.2964C1.26689 16.1852 1.19465 16.0312 1.25244 15.8944C1.40414 15.5522 1.35357 15.0903 1.6931 14.8593C1.77256 14.7994 1.76534 14.0038 1.70032 13.9268C1.64253 13.8584 1.59196 13.8926 1.5414 13.9354C1.43304 14.0209 1.28856 14.0808 1.31745 14.2776C1.3319 14.4059 1.36802 14.5257 1.38247 14.654C1.39692 14.8507 1.34635 14.9705 1.15853 14.9448Z" fill="#609775"/>
<path d="M7.50851 4.87625C7.67466 6.04821 7.57353 7.22872 7.56631 8.40924C7.56631 8.86262 7.19066 9.2048 6.80057 9.21336C5.45692 9.22191 4.10604 9.22191 2.76239 9.21336C2.30005 9.21336 1.9822 8.82841 1.96775 8.25526C1.94608 7.28861 1.96053 6.32196 1.96053 5.3553C1.96053 5.01313 2.14113 4.7736 2.32173 4.55119C2.41564 4.36299 2.56734 4.35443 2.73349 4.35443C4.04102 4.35443 5.34856 4.34588 6.64886 4.36299C7.00284 4.34588 7.35681 4.39721 7.50851 4.87625Z" fill="#284833"/>
<path d="M13.5043 4.51698C13.7716 4.75651 13.8872 5.07302 13.88 5.47508C13.8655 6.38185 13.88 7.29718 13.8728 8.20395C13.8728 8.84553 13.5694 9.21337 13.0276 9.21337C11.7345 9.22193 10.4342 9.22193 9.13386 9.21337C8.59206 9.20482 8.30311 8.83698 8.29588 8.18684C8.28866 7.19452 8.28866 6.19365 8.28866 5.20134C8.26699 4.84205 8.41869 4.55975 8.72209 4.43144C8.90269 4.35445 9.09774 4.33734 9.29279 4.33734C10.492 4.33734 11.6984 4.33734 12.8975 4.33734C13.107 4.3459 13.331 4.32023 13.5043 4.51698Z" fill="#284833"/>
<path d="M24.8531 6.81816C24.8531 7.35709 24.8603 7.89602 24.8531 8.4435C24.8458 8.93966 24.6652 9.19629 24.2462 9.2134C23.6467 9.23906 23.0471 9.23051 22.4475 9.2134C22.0646 9.20484 21.8262 8.91399 21.8262 8.4435C21.819 7.33142 21.819 6.2279 21.8262 5.11582C21.8334 4.67954 22.0502 4.44002 22.4186 4.43146C23.0326 4.42291 23.6467 4.42291 24.2535 4.43146C24.6363 4.44002 24.8386 4.6881 24.8458 5.15859C24.8531 5.71463 24.8531 6.26212 24.8531 6.81816Z" fill="#284833"/>
<path d="M28.3134 6.84383C28.3134 7.38276 28.3206 7.92169 28.3134 8.46062C28.3061 8.94822 28.1111 9.1963 27.6993 9.20485C27.1214 9.21341 26.5435 9.21341 25.9728 9.20485C25.5466 9.1963 25.2937 8.914 25.2937 8.40929C25.2865 7.33998 25.2865 6.27923 25.2937 5.20993C25.301 4.64534 25.5032 4.41437 25.98 4.41437C26.5435 4.41437 27.107 4.41437 27.6704 4.41437C28.1111 4.41437 28.3061 4.65389 28.3134 5.16716C28.3206 5.73175 28.3134 6.28779 28.3134 6.84383Z" fill="#284833"/>
<path d="M12.139 13.2254C12.0378 13.2254 11.9439 13.2254 11.8428 13.2254C11.7128 13.1655 11.5827 13.1997 11.4527 13.1997C9.02546 13.1997 6.59099 13.1997 4.16375 13.1997C3.7592 13.1997 3.72308 13.1655 3.72308 12.7036C3.71586 11.9508 3.73031 11.198 3.71586 10.4366C3.70864 10.103 3.83867 9.95759 4.09873 9.95759C5.08119 9.96614 6.07087 9.90626 7.05332 9.98325C7.41452 10.0089 7.77571 9.94903 8.12969 9.94903C9.69006 9.94903 11.2504 9.94903 12.8108 9.94903C12.883 9.94903 12.9553 9.94048 13.0275 9.94903C13.4682 9.9918 13.5332 10.0773 13.5332 10.5992C13.5332 11.3177 13.5549 12.0449 13.5404 12.7634C13.5332 13.0286 13.4754 13.1313 13.2442 13.1655C12.883 13.2254 12.5074 13.1398 12.139 13.2254Z" fill="#FDFDFD"/>
<path d="M29.332 4.68807C29.332 4.65386 29.332 4.62819 29.332 4.59398C29.3753 4.44 29.3681 4.26891 29.5921 4.28602C30.9429 4.36301 32.2938 4.23469 33.6447 4.26035C33.8108 4.26035 33.9842 4.24324 34.1215 4.38012C34.172 4.43144 34.1937 4.49132 34.1359 4.5512C33.9842 4.66241 33.8108 4.6453 33.6447 4.6453C33.2979 4.65386 32.944 4.6453 32.5972 4.6453C32.3733 4.6453 32.2577 4.75651 32.2649 5.03025C32.2649 5.14146 32.2577 5.26122 32.2577 5.37243C32.2577 8.8883 32.2577 12.4127 32.2577 15.9286C32.2577 16.5959 32.2577 16.6044 32.8139 16.6044C33.1607 16.6044 33.5147 16.6044 33.8614 16.6044C34.0854 16.6044 34.1937 16.4761 34.1937 16.2109C34.1937 16.0569 34.1937 15.8944 34.1937 15.7404C34.1937 12.2502 34.1937 8.75999 34.1937 5.26978C34.1937 5.0217 34.1504 4.75651 34.2804 4.51698C34.4754 4.40578 34.5116 4.57687 34.5405 4.73084C34.5766 4.90193 34.5549 5.07302 34.5549 5.24411C34.5549 8.99096 34.5549 12.7378 34.5549 16.4846C34.5549 16.9808 34.396 17.1947 33.9698 17.1947C33.3485 17.1947 32.72 17.2717 32.0988 17.1262C31.9254 17.0835 31.7376 17.1091 31.5642 17.1604C31.3403 17.2203 31.1019 17.2374 30.8851 17.1776C30.5962 17.1006 30.3289 17.1006 30.0399 17.169C29.5921 17.2802 29.2814 16.9722 29.3175 16.459C29.4115 15.1673 29.3392 13.867 29.3609 12.5753C29.4042 10.2827 29.3898 7.99009 29.3898 5.6975C29.4042 5.36388 29.3826 5.0217 29.332 4.68807Z" fill="#3D644B"/>
<path d="M34.1646 4.50842C33.9912 4.34589 33.7889 4.33733 33.5867 4.33733C32.3369 4.36299 31.0872 4.38866 29.8375 4.43143C29.6641 4.43998 29.4329 4.25179 29.3318 4.59396C29.3318 4.48276 29.3318 4.37155 29.3318 4.25179C29.4546 4.1748 29.5918 4.20901 29.7219 4.20901C31.21 4.20901 32.7054 4.20901 34.1935 4.20901C34.3235 4.20901 34.4608 4.23468 34.5908 4.18335C34.6558 4.20901 34.6703 4.2689 34.6775 4.33733C34.7714 4.44854 34.7859 4.59396 34.7786 4.73083C34.6919 7.61368 34.757 10.5051 34.7425 13.3879C34.7353 14.5684 34.7208 15.749 34.757 16.9295C34.7642 17.2203 34.6486 17.3486 34.4247 17.3743C34.3307 17.3829 34.2296 17.3914 34.1357 17.3914C32.7054 17.3914 31.275 17.3914 29.8447 17.3914C29.6641 17.3914 29.4835 17.4085 29.3173 17.2888C29.1801 17.092 29.209 16.861 29.209 16.6386C29.2017 15.3127 29.209 13.9953 29.209 12.6694C29.209 12.1219 29.1873 12.0962 28.7177 12.0962C26.4205 12.0962 24.1305 12.0962 21.8333 12.0962C21.6311 12.0962 21.4216 12.139 21.2482 11.9679C21.2482 11.8823 21.2482 11.7882 21.241 11.7027C21.4071 11.5573 21.6022 11.5744 21.7972 11.5744C24.1811 11.5744 26.5578 11.5744 28.9417 11.5744C29.0717 11.5744 29.209 11.6172 29.3318 11.5316C29.3318 9.24758 29.3318 6.9721 29.339 4.68806C29.4401 5.00458 29.4835 5.3382 29.4763 5.68038C29.4546 7.67356 29.469 9.66675 29.4618 11.6599C29.4546 13.0543 29.4618 14.4487 29.4763 15.8431C29.4763 16.0141 29.4835 16.1767 29.4329 16.3478C29.3679 16.5787 29.4185 16.8354 29.5629 16.9637C29.7291 17.1177 29.9747 17.169 30.1698 17.015C30.3504 16.8696 30.5093 16.8867 30.6754 16.9893C30.8127 17.0663 30.9499 17.1091 31.0944 17.0834C32.0552 16.8867 33.0232 17.169 33.984 17.092C34.3669 17.0578 34.468 16.938 34.4608 16.4675C34.4463 15.5436 34.4536 14.6198 34.4536 13.6873C34.4536 10.7788 34.4536 7.87887 34.4463 4.97036C34.4463 4.80782 34.5475 4.57685 34.3018 4.51697C34.2585 4.5683 34.2152 4.55975 34.1646 4.50842Z" fill="#39674A"/>
<path d="M29.3318 17.2545C30.9788 17.2545 32.6331 17.246 34.2802 17.2631C34.6053 17.2631 34.6775 17.1519 34.6775 16.784C34.6703 12.6351 34.6775 8.48623 34.6775 4.33733C34.7353 4.25178 34.7859 4.15768 34.8725 4.02081C34.9303 4.36299 35.1832 4.63673 34.8653 4.95325C34.7786 5.03879 34.8148 5.19277 34.8148 5.32109C34.8148 9.05083 34.8148 12.772 34.8148 16.5017C34.8148 16.6386 34.7714 16.7926 34.887 16.9038C35.082 17.0749 35.1254 17.2203 34.8653 17.3743C34.8148 17.4 34.7208 17.4085 34.7064 17.5197C34.7281 17.6053 34.8075 17.6138 34.8509 17.5967C35.2482 17.3829 35.6527 17.7336 36.05 17.571C36.1151 17.5454 36.1512 17.6224 36.1801 17.6908C35.7033 17.7678 35.1976 17.5625 34.7353 17.8619C34.5113 17.9132 34.2802 17.9218 34.0562 17.9218C32.6403 17.9218 31.2172 17.9218 29.8013 17.9218C29.6135 17.9218 29.4112 17.9646 29.2523 17.7849C29.0356 17.571 28.9561 17.246 28.7683 17.0065C27.6703 15.5779 25.7054 15.8088 24.8746 17.4769C24.8313 17.571 24.8313 17.7079 24.7012 17.7079C24.564 17.7935 24.5279 17.6994 24.5495 17.5625C24.5784 17.3743 24.6651 17.2203 24.7735 17.0834C25.113 16.6643 25.4742 16.2708 25.886 15.9628C26.2399 15.6976 26.6589 15.8174 27.0418 15.7746C27.2513 15.749 27.468 15.8088 27.6847 15.7917C27.8942 15.7661 28.0531 15.9115 28.1904 16.074C28.566 16.459 29.0645 16.707 29.3318 17.2545Z" fill="#619776"/>
<path d="M5.99861 19.1365C4.6983 19.1365 3.40522 19.1365 2.04712 19.1365C2.45166 18.666 2.3433 18.2126 2.10491 17.7593C2.15548 17.7593 2.20605 17.7507 2.25661 17.7507C2.3722 17.7165 2.48778 17.7165 2.60336 17.7507C3.75919 17.7593 4.91502 17.7593 6.07085 17.7678C6.21533 17.7849 6.18644 17.9047 6.14309 17.9817C5.9336 18.341 6.01306 18.743 5.99861 19.1365Z" fill="#3C664B"/>
<path d="M12.139 13.2254C12.5002 13.0372 12.8975 13.2254 13.2732 13.0886C13.4754 13.0201 13.5116 12.926 13.5116 12.7207C13.5043 12.0364 13.5116 11.352 13.5116 10.6676C13.5116 10.2057 13.396 10.0004 13.0059 10.0004C12.2618 10.0004 11.525 9.94052 10.7737 10.0432C10.4053 10.0945 10.0224 9.99185 9.63954 10.0004C8.98216 10.0261 8.32478 9.94052 7.6674 10.0603C7.16895 10.1458 6.6705 9.95763 6.16482 9.98329C5.52912 10.0175 4.89341 9.98329 4.25048 9.99185C3.84594 9.99185 3.76648 10.1031 3.76648 10.5735C3.76648 11.275 3.7737 11.9679 3.76648 12.6694C3.75925 13.0287 3.86761 13.1655 4.19269 13.1655C6.60548 13.157 9.0255 13.157 11.4383 13.1655C11.5756 13.1655 11.7273 13.1057 11.8573 13.234C9.21332 13.2425 6.56936 13.2425 3.9254 13.2511C3.73036 13.2511 3.68701 13.157 3.68701 12.9517C3.69424 12.0449 3.69424 11.1296 3.68701 10.2228C3.68701 9.97474 3.75925 9.91486 3.96152 9.91486C7.08949 9.92341 10.2102 9.92341 13.3382 9.91486C13.5405 9.91486 13.6127 9.98329 13.6055 10.2228C13.5983 10.6591 13.6127 11.1039 13.6127 11.5488C13.6994 11.6942 13.6922 11.8311 13.6055 11.9679C13.5549 12.3871 13.7572 12.9688 13.5188 13.1827C13.2732 13.3965 12.8108 13.2511 12.4424 13.2596C12.3341 13.2425 12.2402 13.2254 12.139 13.2254Z" fill="#F3FEF8"/>
<path d="M35.335 12.9688C35.335 12.9945 35.3278 13.0287 35.3278 13.0544C35.1039 13.0458 35.1039 12.8491 35.1039 12.6609C35.1039 10.8388 35.0966 9.01666 35.1111 7.19457C35.1111 6.91227 35.0388 6.57009 35.335 6.3819L35.3206 6.399C35.4289 6.53588 35.4289 6.70696 35.4362 6.87805C35.4434 8.74292 35.4434 10.6163 35.4362 12.4812C35.4362 12.6609 35.4362 12.8319 35.335 12.9688Z" fill="#619776"/>
<path d="M13.5042 4.51703C13.367 4.48281 13.2297 4.42293 13.0852 4.42293C11.756 4.43149 10.4268 4.42293 9.09763 4.43149C8.64252 4.43149 8.40413 4.67101 8.29577 5.20994C8.26688 5.26127 8.23076 5.32115 8.20186 5.38103C8.13685 4.73945 8.46915 4.28606 9.13375 4.27751C10.5496 4.2604 11.9583 4.21763 13.3742 4.30317C13.5259 4.30317 13.5693 4.34594 13.5042 4.51703Z" fill="#659377"/>
<path d="M7.50838 4.87624C7.26277 4.51696 6.95214 4.40575 6.55482 4.4143C5.31953 4.43997 4.08423 4.42286 2.84894 4.42286C2.66834 4.42286 2.49497 4.44852 2.32159 4.53407C2.31437 4.3031 2.43717 4.25177 2.60333 4.25177C3.96865 4.25177 5.33397 4.25177 6.70652 4.25177C6.92324 4.25177 7.13274 4.33731 7.32056 4.44852C7.45059 4.53407 7.62396 4.62816 7.50838 4.87624Z" fill="#659477"/>
<path d="M29.3246 11.5231C29.2017 11.6685 29.05 11.6086 28.9128 11.6086C26.7023 11.6086 24.4845 11.6086 22.274 11.6086C21.9272 11.6086 21.5805 11.583 21.241 11.6942C21.241 11.6343 21.241 11.5744 21.241 11.5231C23.9355 11.5231 26.63 11.5231 29.3246 11.5231Z" fill="#3B674C"/>
<path d="M20.945 4.53412C20.6488 4.28604 20.3165 4.24327 19.9553 4.25182C18.4528 4.26893 16.9574 4.26038 15.4548 4.25182C15.2598 4.25182 15.072 4.27748 14.8914 4.34592C14.9491 4.10639 15.1297 4.14061 15.2742 4.14061C16.7985 4.14061 18.33 4.16628 19.8542 4.14917C20.0998 4.14917 20.3454 4.07218 20.591 4.16628C20.7572 4.23471 20.9161 4.29459 20.945 4.53412Z" fill="#659276"/>
<path d="M14.4577 4.85913C14.3349 5.06444 14.3782 5.29541 14.3782 5.51782C14.371 7.51956 14.371 9.5213 14.371 11.523C14.2988 11.5915 14.2265 11.6 14.1543 11.523C14.3277 11.3177 14.3277 11.0525 14.2916 10.8045C14.1832 9.90625 14.2916 9.00804 14.2916 8.10127C14.2988 7.15172 14.2916 6.20218 14.2988 5.25264C14.3132 5.10721 14.2338 4.89335 14.4577 4.85913Z" fill="#669378"/>
<path d="M34.5908 4.1919C34.4752 4.31166 34.338 4.26034 34.2079 4.26034C32.5826 4.26034 30.9572 4.26034 29.3318 4.26034C29.3896 4.16624 29.4763 4.18335 29.563 4.18335C31.2389 4.18335 32.9149 4.18335 34.5908 4.1919Z" fill="#3D644B"/>
<path d="M10.6942 17.5968C10.7736 17.7251 10.882 17.6737 10.9831 17.6823C12.1101 17.6823 13.237 17.6823 14.3639 17.6823C14.3712 17.708 14.3712 17.7336 14.3712 17.7593C14.2484 17.9047 14.0894 17.9047 13.9377 17.9047C12.9769 17.9133 12.0234 17.9133 11.0626 17.9047C10.9037 17.9047 10.752 17.9047 10.6219 17.7678C10.4991 17.5454 10.3113 17.3658 10.2607 17.092C10.4702 17.1776 10.4847 17.5027 10.6942 17.5968Z" fill="#688873"/>
<path d="M14.1619 11.5231C14.2341 11.5231 14.3063 11.5231 14.3786 11.5231C14.3786 11.6685 14.3786 11.8139 14.3714 11.9593C14.1113 11.9593 13.8512 11.9508 13.5984 11.9508C13.5984 11.8139 13.5984 11.6685 13.6056 11.5316C13.7862 11.5316 13.974 11.5316 14.1619 11.5231Z" fill="#3D694D"/>
<path d="M0.898438 16.0312C1.24519 16.4419 1.14405 16.9295 1.1585 17.3914C1.1585 17.4769 1.14405 17.571 1.05014 17.571C1.02124 17.571 0.956229 17.5112 0.956229 17.4684C0.941781 16.9893 0.949005 16.5103 0.898438 16.0312Z" fill="#609775"/>
<path d="M13.9234 12.6523C14.1185 12.7036 14.2846 12.772 14.2991 13.0372C14.3063 13.1484 14.2702 13.234 14.1618 13.234C13.9523 13.2254 13.8367 13.0886 13.8006 12.849C13.7934 12.7378 13.8223 12.6523 13.9234 12.6523Z" fill="#609775"/>
<path d="M1.16568 15.0903C1.10066 15.2956 1.06454 15.5437 0.862274 15.6463C0.804482 15.6805 0.753915 15.5608 0.768363 15.5009C0.840602 15.287 0.883946 15.0389 1.08622 14.9448C1.2018 14.9021 1.14401 15.0304 1.16568 15.0903Z" fill="#609775"/>
<path d="M3.29688 13.1056C3.25354 12.7977 3.10906 12.5667 3.28244 12.3272C3.31133 12.2929 3.35468 12.2587 3.39802 12.2587C3.46303 12.2587 3.46304 12.3272 3.46304 12.387C3.49915 12.6351 3.44136 12.8575 3.29688 13.1056Z" fill="#609775"/>
<path d="M4.06274 13.3452C4.36615 13.3452 4.67678 13.3452 4.98019 13.3452C4.98019 13.3623 4.98019 13.3709 4.98019 13.388C4.67678 13.388 4.37337 13.388 4.06997 13.388C4.06997 13.3709 4.06274 13.3538 4.06274 13.3452Z" fill="#609775"/>
<path d="M35.2412 5.45795C35.2412 5.64614 35.2412 5.8429 35.2412 6.04821C35.0534 5.8429 35.1762 5.64614 35.2412 5.45795Z" fill="#619776"/>
<path d="M35.176 16.4761C35.2771 16.6643 35.2699 16.7926 35.1543 16.9893C35.0965 16.8011 35.0893 16.6728 35.176 16.4761Z" fill="#619776"/>
<path d="M36.5269 13.636C36.6208 13.6275 36.6208 13.6873 36.6136 13.7387C36.5919 13.8328 36.5197 13.8584 36.4547 13.867C36.4041 13.8755 36.3608 13.8071 36.3896 13.7643C36.4185 13.7045 36.4836 13.6702 36.5269 13.636Z" fill="#619776"/>
<path d="M35.4507 14.902C35.3568 14.7823 35.4001 14.6882 35.4074 14.5684C35.5085 14.6711 35.5591 14.7566 35.4507 14.902Z" fill="#619776"/>
<path d="M9.66113 13.388C9.74782 13.2939 9.82728 13.3452 9.96454 13.3195C9.82728 13.4307 9.74782 13.4051 9.66113 13.388Z" fill="#609775"/>
<path d="M2.59602 17.7507C2.48043 17.7507 2.36485 17.7507 2.24927 17.7507C2.36485 17.648 2.48043 17.648 2.59602 17.7507Z" fill="#609775"/>
<path d="M29.3318 17.2546C29.2668 17.2546 29.1945 17.4257 29.144 17.2375C29.0356 16.844 28.7466 16.69 28.4866 16.4847C28.3782 16.3991 28.2771 16.2965 28.1904 16.1853C28.0242 15.9714 27.8509 15.8516 27.5836 15.8773C27.2224 15.9201 26.8467 15.903 26.4928 15.8687C26.0088 15.8174 25.727 16.2109 25.4236 16.4761C25.243 16.6386 25.0119 16.8012 24.8818 17.0578C24.7879 17.246 24.5206 17.3829 24.7085 17.6823C24.7085 17.708 24.7085 17.7336 24.7012 17.7593C24.5784 17.8961 24.4195 17.8962 24.2606 17.8962C23.4009 17.8962 22.5413 17.9047 21.6744 17.8962C21.5227 17.8962 21.3638 17.8962 21.241 17.7507C21.241 15.8174 21.241 13.8841 21.241 11.9594C23.8271 11.9594 26.4133 11.9594 28.9995 11.9423C29.2523 11.9423 29.3318 12.0278 29.3246 12.3272C29.3246 13.9782 29.3318 15.6121 29.3318 17.2546Z" fill="#609774"/>
<path d="M29.2596 17.7678C30.9645 17.7678 32.6693 17.7678 34.3742 17.7678C34.497 17.7678 34.6415 17.7079 34.7498 17.8534C34.5042 18.2554 34.5259 18.666 34.7426 19.0767C34.6415 19.1879 34.5114 19.1451 34.3959 19.1451C32.8355 19.1451 31.2751 19.1365 29.7075 19.1536C29.4113 19.1536 29.2669 19.0595 29.3319 18.7003C29.3969 18.3666 29.1946 18.0843 29.2596 17.7678Z" fill="#3B664B"/>
<path d="M28.4724 18.897C28.4651 19.8637 27.7933 20.6678 26.9914 20.6763C26.1679 20.6763 25.4961 19.8637 25.4961 18.8714C25.4961 17.9047 26.1679 17.1006 26.977 17.1006C27.7933 17.092 28.4724 17.9047 28.4724 18.897Z" fill="#B9BABC"/>
<path d="M21.2483 17.7593C22.3969 17.7593 23.5528 17.7678 24.7014 17.7678C24.7808 18.2041 24.5063 18.5805 24.5641 19.0168C24.593 19.2135 24.4052 19.128 24.3185 19.128C23.141 19.1365 21.9707 19.128 20.7932 19.128C21.1978 18.7858 21.2483 18.2811 21.2483 17.7593Z" fill="#3B664B"/>
<path d="M8.37536 17.092C9.17 17.092 9.89239 17.9389 9.88517 18.8628C9.87794 19.8466 9.17 20.6764 8.36814 20.6678C7.55183 20.6592 6.87278 19.8551 6.87278 18.8885C6.85833 17.9047 7.54461 17.092 8.37536 17.092Z" fill="#B9BABC"/>
<path d="M10.622 17.7678C11.8717 17.7678 13.1215 17.7593 14.3712 17.7593C14.364 18.2897 14.3929 18.8029 14.8191 19.128C13.5838 19.128 12.3557 19.128 11.1204 19.1365C10.8532 19.1365 10.7376 19.0253 10.7665 18.7174C10.8026 18.3838 10.5859 18.1015 10.622 17.7678Z" fill="#3B664B"/>
<path d="M14.6746 17.7592C14.6746 17.7336 14.6746 17.7079 14.6818 17.6822C14.7251 17.5283 14.7035 17.3743 14.7035 17.2117C14.7035 13.4221 14.7035 9.63251 14.7035 5.84289C14.7035 4.84202 14.8624 4.65383 15.7148 4.64527C17.1235 4.63672 18.5321 4.65383 19.9408 4.63672C20.3237 4.63672 20.656 4.73082 20.8944 5.10721C20.9883 5.22698 20.9522 5.38095 20.9522 5.51783C20.9522 9.57263 20.9522 13.6274 20.9522 17.6822C20.8583 17.8875 20.6849 17.9047 20.5115 17.9047C18.6983 17.9132 16.8923 17.9132 15.0791 17.9047C14.9346 17.9047 14.7829 17.8961 14.6746 17.7592Z" fill="#609775"/>
<path d="M14.6746 17.7593C16.6611 17.7593 18.6477 17.7679 20.6343 17.7679C20.7427 17.7679 20.851 17.7507 20.9449 17.6823C20.9377 17.9218 20.9594 18.1614 20.9233 18.3923C20.8799 18.6575 20.7354 18.8628 20.5115 18.9655C18.7272 18.9655 16.9501 18.9655 15.1658 18.9655C14.7107 18.7345 14.6457 18.5891 14.6746 17.7593Z" fill="#3B654B"/>
<path d="M20.8944 5.10725C20.851 5.09014 20.786 5.0987 20.7571 5.06448C20.3454 4.54266 19.818 4.69664 19.3196 4.68808C18.1637 4.67953 17.0079 4.67953 15.8593 4.68808C15.7148 4.68808 15.5703 4.70519 15.4331 4.73085C14.9491 4.8164 14.754 5.01315 14.754 5.5863C14.7468 7.63936 14.7612 9.68388 14.7612 11.7369C14.7612 13.6702 14.7468 15.6035 14.7396 17.5369C14.7396 17.5882 14.7035 17.6395 14.689 17.6908C14.6818 16.3136 14.6746 14.9277 14.6746 13.5505C14.6746 10.8729 14.6746 8.1954 14.6746 5.51786C14.6746 4.83351 14.8696 4.60254 15.4547 4.60254C17.044 4.60254 18.6261 4.60254 20.2153 4.60254C20.5404 4.58543 20.8077 4.67098 20.8944 5.10725Z" fill="#669477"/>
<path d="M35.3351 12.9687C35.3351 10.7788 35.3279 8.58886 35.3279 6.39893C35.9275 6.39893 36.5271 6.39893 37.1266 6.39893C37.1266 8.46055 37.1266 10.5222 37.1339 12.5838C37.1339 12.8746 37.0761 12.9944 36.816 12.9773C36.3176 12.9687 35.8263 12.9773 35.3351 12.9687Z" fill="#FEFEFE"/>
<path d="M36.722 16.6643C36.8521 16.6557 36.946 16.6643 37.0254 16.7327C37.1627 16.8525 37.1482 17.1006 37.0399 17.092C36.787 17.0835 36.5342 17.2032 36.2886 17.092C36.2019 17.0578 36.1513 16.9637 36.1658 16.8611C36.1802 16.767 36.2597 16.7498 36.3319 16.7413C36.4764 16.7242 36.6064 16.613 36.722 16.6643Z" fill="#E18E45"/>
<path d="M4.2866 12.062C4.35161 11.9422 4.38051 11.8652 4.20713 11.8481C4.06265 11.831 3.99041 11.6599 4.01209 11.506C4.02653 11.3605 4.12767 11.2664 4.27215 11.3605C4.33716 11.5487 4.45275 11.6514 4.63334 11.6514C5.37741 11.6514 6.12148 11.6685 6.86554 11.6428C6.90889 11.6428 6.95945 11.6257 7.0028 11.5487C6.87999 11.4632 6.74996 11.4888 6.62715 11.4888C5.99867 11.4888 5.37741 11.4888 4.74893 11.4888C4.58278 11.4888 4.4094 11.5231 4.27215 11.3691C4.34439 11.2408 4.46719 11.3092 4.56833 11.2664C4.51776 11.1552 4.37328 11.2322 4.35161 11.0953C4.48887 10.967 4.64779 10.9927 4.7995 10.9927C5.39908 10.9841 5.99867 10.9927 6.59103 10.9927C6.74273 10.9927 6.90166 11.0183 7.03169 10.8729C6.95945 10.6847 6.8222 10.7361 6.71384 10.7275C6.07091 10.7189 5.42075 10.7275 4.77782 10.7275C4.55388 10.7275 4.36606 10.7703 4.35161 11.0953C4.2288 11.0782 4.01931 11.0611 4.04821 10.9328C4.09877 10.7104 4.20713 10.4366 4.47442 10.4366C5.11735 10.4366 5.75306 10.488 6.39599 10.4452C6.81497 10.4195 7.19784 10.5393 7.58071 10.6847C7.70352 10.9328 7.90579 10.9927 8.13696 10.9927C8.71487 10.9841 9.28556 10.9841 9.86348 10.9927C10.0296 10.9927 10.203 10.9585 10.3403 11.1124C10.2391 11.3178 10.4486 11.2664 10.4847 11.3605C10.3547 11.5402 10.1813 11.4974 10.0152 11.4974C9.41559 11.5059 8.81601 11.4974 8.21642 11.4974C8.07194 11.4974 7.92746 11.4803 7.77576 11.5573C7.84077 11.6941 7.94191 11.6685 8.0286 11.6685C8.70042 11.677 9.37225 11.6685 10.0441 11.677C10.2536 11.677 10.4197 11.6 10.5353 11.3862C10.6075 11.4033 10.7087 11.3006 10.7304 11.4717C10.752 11.6257 10.7159 11.754 10.6075 11.8481C10.5353 11.908 10.4053 11.8995 10.4775 12.0705C10.3403 12.2245 10.1597 12.1903 10.0007 12.1903C9.3867 12.1989 8.77989 12.1903 8.16585 12.1903C8.03582 12.1903 7.90579 12.1646 7.79021 12.2587C7.82633 12.3871 7.91301 12.3614 7.97081 12.3614C8.67875 12.3699 9.3867 12.3614 10.0946 12.3699C10.2825 12.3699 10.4197 12.293 10.4775 12.0705C10.7015 12.0705 10.752 12.293 10.7159 12.4555C10.6726 12.6266 10.4703 12.695 10.333 12.695C9.51673 12.6608 8.70765 12.6608 7.89134 12.695C7.78298 12.7036 7.65295 12.6865 7.55182 12.5753C7.47235 12.4897 7.37844 12.4812 7.28453 12.5154C6.88721 12.6522 5.60135 12.7549 5.20404 12.6351C4.98732 12.5667 4.80672 12.6694 4.61167 12.7207C4.27937 12.7977 4.01209 12.5068 4.106 12.1475C4.12767 11.9764 4.19991 12.0021 4.2866 12.062C4.33716 12.1989 4.40218 12.3101 4.54666 12.3186C5.35574 12.3528 6.16482 12.3357 7.05336 12.3357C6.88721 12.1304 6.75718 12.1646 6.63438 12.1646C5.99867 12.1561 5.36296 12.1646 4.73448 12.1646C4.57555 12.1646 4.41663 12.1903 4.2866 12.062Z" fill="#F7FDF9"/>
<path d="M11.0482 11.4803C11.0627 10.8387 11.5033 10.3254 12.0451 10.334C12.6013 10.3425 13.0348 10.8815 13.0203 11.5487C13.0059 12.1903 12.558 12.7121 12.0234 12.7035C11.4672 12.6864 11.0338 12.1475 11.0482 11.4803Z" fill="#508064"/>
<path d="M10.3329 11.0954C9.51661 11.0868 8.70752 11.0782 7.89122 11.0697C7.66728 11.0697 7.45778 11.044 7.57336 10.6676C7.73952 10.5564 7.92011 10.5821 8.10071 10.5821C8.81588 10.5821 9.53828 10.5821 10.2534 10.5821C10.3907 10.5821 10.528 10.5906 10.5641 10.7874C10.6002 11.0013 10.4702 11.0526 10.3329 11.0954Z" fill="#59816A"/>
<path d="M10.5282 11.3691C10.6293 11.6771 10.521 11.7883 10.2609 11.7883C9.45184 11.7797 8.64999 11.7883 7.84091 11.7883C7.6892 11.7883 7.52305 11.7712 7.5375 11.5402C7.54472 11.3349 7.71088 11.3434 7.84091 11.3434C8.72223 11.3434 9.59632 11.3434 10.4776 11.3434C10.4921 11.3605 10.5065 11.3691 10.5282 11.3691Z" fill="#547E66"/>
<path d="M34.1648 4.50845C34.2154 4.50845 34.2587 4.50845 34.3093 4.50845C34.3093 8.43494 34.3093 12.37 34.3165 16.2965C34.3165 16.6643 34.2154 16.7584 33.9264 16.7413C33.4569 16.7156 32.9873 16.7156 32.5177 16.7413C32.2143 16.7584 32.1349 16.6386 32.1349 16.2879C32.1493 13.6703 32.1421 11.044 32.1421 8.42638C32.1421 7.26298 32.1566 6.09102 32.1349 4.92762C32.1277 4.57689 32.2288 4.49134 32.5033 4.4999C33.0595 4.52556 33.6158 4.50845 34.1648 4.50845Z" fill="#284833"/>
<path d="M31.8531 10.719C31.8531 12.5838 31.8459 14.4487 31.8603 16.3136C31.8603 16.6472 31.7881 16.767 31.4991 16.7498C31.0079 16.7242 30.5095 16.7327 30.0182 16.7498C29.7726 16.7584 29.6787 16.6814 29.6859 16.3735C29.6932 12.5753 29.6932 8.76855 29.6859 4.97038C29.6859 4.69664 29.7582 4.59399 29.9966 4.60254C30.5167 4.61965 31.0296 4.61965 31.5497 4.60254C31.817 4.59399 31.8676 4.7223 31.8676 5.0046C31.8531 6.90369 31.8531 8.81133 31.8531 10.719Z" fill="#284833"/>
<path d="M23.1193 13.3195C23.1193 13.7387 22.8737 14.0039 22.4981 14.0039C22.1369 14.0039 21.884 13.6788 21.8913 13.2254C21.8985 12.9004 22.238 12.5411 22.5197 12.5496C22.9026 12.5582 23.1193 12.8405 23.1193 13.3195Z" fill="#7F925F"/>
<path d="M26.9696 18.1785C27.3741 18.1785 27.5981 18.4437 27.5909 18.897C27.5836 19.2991 27.3164 19.6071 26.9696 19.5985C26.6229 19.5985 26.3628 19.2905 26.3628 18.8799C26.3628 18.4779 26.6229 18.1785 26.9696 18.1785Z" fill="#98999B"/>
<path d="M9.01106 18.8799C9.01106 19.2392 8.65709 19.6498 8.34646 19.6412C8.06472 19.6327 7.73242 19.2221 7.73242 18.8799C7.73242 18.5206 8.0864 18.11 8.3898 18.1271C8.68598 18.1271 9.01106 18.5292 9.01106 18.8799Z" fill="#98999B"/>
<path d="M17.8026 5.53497C18.4745 5.53497 19.1535 5.53497 19.8253 5.53497C20.2877 5.53497 20.5116 5.7745 20.5116 6.29632C20.5188 7.92166 20.5188 9.54701 20.5116 11.1723C20.5116 11.6428 20.2515 11.9422 19.847 11.9508C18.4889 11.9594 17.1236 11.9594 15.7655 11.9508C15.332 11.9508 15.1009 11.6514 15.1009 11.1381C15.0937 9.5299 15.0937 7.91311 15.1009 6.30487C15.1009 5.80016 15.3248 5.53497 15.7438 5.53497C16.4301 5.53497 17.1164 5.53497 17.8026 5.53497Z" fill="#284833"/>
<path d="M4.35167 11.0782C4.27943 10.9841 4.16385 10.9157 4.22886 10.7617C4.27943 10.6334 4.38056 10.5821 4.49615 10.5821C5.3269 10.5821 6.15043 10.5821 6.98118 10.5821C7.12566 10.5821 7.24847 10.6334 7.24124 10.8473C7.2268 11.0782 7.06787 11.0611 6.94506 11.0611C6.07819 11.0782 5.21132 11.0782 4.35167 11.0782Z" fill="#58826A"/>
<path d="M4.26483 11.352C5.1606 11.3435 6.06359 11.3435 6.95936 11.3349C7.09662 11.3349 7.2411 11.3349 7.23387 11.5659C7.22665 11.7541 7.10384 11.7797 6.97381 11.7797C6.15028 11.7797 5.31953 11.7797 4.496 11.7797C4.23594 11.7797 4.1348 11.6514 4.26483 11.352Z" fill="#557E66"/>
<path d="M10.4704 12.0449C10.651 12.3443 10.5715 12.4897 10.2753 12.4897C9.459 12.4897 8.63547 12.4897 7.81917 12.4897C7.68191 12.4897 7.53021 12.4811 7.54466 12.2587C7.55911 12.062 7.69636 12.0363 7.84084 12.0363C8.71494 12.0449 9.59626 12.0449 10.4704 12.0449Z" fill="#537F65"/>
<path d="M4.28648 12.062C5.18947 12.0534 6.08524 12.0449 6.98823 12.0363C7.11826 12.0363 7.24829 12.0705 7.23384 12.2587C7.22662 12.4213 7.11104 12.4811 6.97378 12.4811C6.1358 12.4811 5.2906 12.4897 4.45263 12.4811C4.18534 12.4811 4.14922 12.3101 4.28648 12.062Z" fill="#537F66"/>
<path d="M23.0398 13.3024C23.0326 13.6189 22.787 13.9183 22.5341 13.9183C22.2741 13.9183 22.0212 13.6018 22.0285 13.2767C22.0357 12.9688 22.2885 12.6608 22.5269 12.6694C22.8087 12.6694 23.047 12.9602 23.0398 13.3024Z" fill="#DE8F48"/>
</svg>
