<svg width="50" height="48" viewBox="0 0 50 48" fill="none" xmlns="http://www.w3.org/2000/svg">
<path d="M46.9435 43.3717C47.0002 43.4325 47.0512 43.5044 47.1191 43.5431C47.2098 43.5929 47.3287 43.6924 47.408 43.5652C47.476 43.4546 47.3627 43.4159 47.2664 43.3606C47.1248 43.2721 47.0795 43.1339 47.2778 43.0344C47.3854 42.9791 47.3571 42.8408 47.3231 42.8408C47.1531 42.8463 47.1871 42.5698 47.0172 42.6251C46.8416 42.6804 46.9719 42.8463 46.9265 42.9569C46.9209 42.9735 46.9152 42.9901 46.9095 43.0067C46.8926 43.0067 46.8699 43.0067 46.8529 43.0067C46.547 42.7081 46.2864 42.7302 46.1108 43.0731C46.0428 43.1118 46.0202 43.0675 45.9862 43.0233C45.8389 42.8408 45.4537 42.7081 45.2724 42.8132C45.1025 42.9127 45.2328 43.1118 45.1988 43.2611C45.1875 43.3219 45.1988 43.3883 45.1988 43.4491C45.0968 43.3661 44.9949 43.3827 44.8986 43.4546C44.9099 43.0178 44.8023 42.8242 44.519 42.8021C44.4057 42.791 44.2811 42.8463 44.2868 42.6528C44.2868 42.592 44.1961 42.6085 44.1452 42.6141C44.0659 42.6196 44.0715 42.6804 44.0715 42.7357C44.0715 42.9016 44.0715 43.0675 44.0715 43.2279C44.0035 43.1837 43.9356 43.145 43.9129 43.062C44.1452 43.0012 43.9412 42.9182 43.9072 42.8961C43.743 42.7579 43.5617 42.7744 43.3918 42.8961C43.3351 42.9403 43.2728 43.0178 43.2331 42.8795C43.2105 42.7966 43.1482 42.7855 43.0802 42.8076C43.0236 42.8297 43.0009 42.8795 43.0009 42.9403C43.0009 43.0067 43.0009 43.0675 43.0009 43.1339C43.0009 43.2556 42.9726 43.3661 42.8253 43.3717C42.678 43.3772 42.644 43.2666 42.6497 43.1394C42.6497 43.1007 42.644 43.0675 42.6497 43.0288C42.678 42.7744 42.5704 42.7357 42.3608 42.8519C42.2701 42.7634 42.1625 42.8629 42.0775 42.8297C41.8056 42.7247 41.834 42.8906 41.8566 43.0509C41.664 42.9514 41.5281 42.7357 41.2675 42.791C41.2562 42.791 41.2165 42.7413 41.2108 42.7081C41.1938 42.603 41.1259 42.5975 41.0466 42.6086C40.9389 42.6307 40.9786 42.7191 40.9673 42.7855C40.9446 42.8906 41.0352 43.0233 40.8936 43.1062C40.786 42.8242 40.5991 42.7247 40.2195 42.791C39.9759 42.8353 40.1289 43.0454 40.1006 43.1781C40.0779 43.2666 40.0949 43.3606 40.0949 43.4546C40.0949 43.5265 40.0836 43.5984 40.2025 43.6039C40.3385 43.6095 40.3158 43.5265 40.3271 43.4436C40.3498 43.2887 40.2308 43.0344 40.5141 43.0399C40.7633 43.0454 40.6557 43.2943 40.6784 43.438C40.6897 43.521 40.6784 43.6039 40.8086 43.6039C40.9276 43.5984 40.9106 43.521 40.9106 43.4491C40.9106 43.4104 40.9049 43.3772 40.8993 43.3385C40.9673 43.2887 40.9842 43.344 41.0239 43.3883C41.2505 43.6648 41.4714 43.6703 41.7263 43.4159C41.766 43.3772 41.7943 43.3219 41.8623 43.3772C41.8736 43.4602 41.783 43.5929 41.9642 43.6039C42.1455 43.615 42.1059 43.4767 42.0832 43.3993C42.0209 43.145 42.1908 43.0565 42.3778 42.9735C42.4457 43.062 42.4061 43.1726 42.4231 43.2666C42.4797 43.5708 42.8196 43.7035 43.0745 43.5265C43.1822 43.4546 43.1878 43.2611 43.2785 43.2555C43.4484 43.239 43.1935 43.4436 43.3691 43.4989C43.4597 43.5265 43.5447 43.6039 43.6523 43.6095C43.8393 43.6205 43.9469 43.4767 44.0715 43.3827C44.0942 43.4657 43.9979 43.5984 44.1735 43.6095C44.3548 43.6205 44.2868 43.4823 44.2981 43.3993C44.3038 43.3385 44.2981 43.2721 44.3038 43.2113C44.3151 43.1118 44.3718 43.0399 44.485 43.0454C44.5983 43.0509 44.655 43.1118 44.6607 43.2168C44.6663 43.2998 44.672 43.3827 44.6607 43.4602C44.6493 43.6095 44.7286 43.6316 44.8533 43.5984C44.9609 43.5486 45.0912 43.6537 45.1988 43.5542C45.3404 43.6537 45.4311 43.6537 45.4311 43.4491C45.4311 43.3772 45.4311 43.2998 45.4367 43.2279C45.4481 43.1284 45.482 43.0454 45.601 43.0454C45.7313 43.0399 45.7709 43.1173 45.7936 43.2334C45.8276 43.3606 45.6803 43.5542 45.8956 43.6039C46.1278 43.6592 45.9465 43.3606 46.1052 43.333C46.2978 43.6869 46.581 43.709 46.8586 43.3883C46.8812 43.3883 46.9095 43.3827 46.9435 43.3717ZM37.7327 42.8463C37.5798 42.7634 37.4835 42.78 37.4948 42.9791C37.5004 43.0509 37.4948 43.1284 37.4948 43.2003C37.4891 43.3053 37.4325 43.3772 37.3192 43.3772C37.2059 43.3827 37.1492 43.3053 37.1436 43.2003C37.1379 43.1062 37.1436 43.0178 37.1379 42.9238C37.1322 42.8519 37.0926 42.8021 37.0133 42.8021C36.9283 42.8021 36.9 42.8574 36.9 42.9293C36.9 43.1615 36.849 43.4159 37.1266 43.5597C37.3985 43.6979 37.5684 43.5431 37.727 43.3606C37.8233 43.4159 37.6874 43.6371 37.9026 43.6095C38.1066 43.5818 38.0103 43.4159 37.9989 43.3274C37.9763 43.0731 38.1406 43.0454 38.3388 43.0233C38.3332 43.2832 38.3615 43.5431 38.6844 43.6039C38.8996 43.6426 39.0696 43.5542 39.1376 43.333C39.1659 43.333 39.2112 43.3219 39.2112 43.333C39.3471 43.6261 39.6134 43.6205 39.8796 43.6205C39.9929 43.6205 40.0722 43.5984 40.0496 43.4712C40.0043 43.25 40.1855 42.9238 39.9533 42.8297C39.7493 42.7468 39.4038 42.7247 39.2508 43.0454C39.2282 43.0952 39.1885 43.1062 39.1376 43.0786C39.0979 42.9127 38.9733 42.8463 38.8203 42.8132C38.7184 42.791 38.5484 42.9016 38.5597 42.6639C38.5597 42.6086 38.3728 42.592 38.3672 42.6749C38.3332 42.9846 38.1066 42.8021 37.9763 42.8353C37.9196 42.8463 37.8403 42.7855 37.778 42.8519C37.7554 42.8463 37.744 42.8463 37.7327 42.8463ZM33.6428 42.8463C33.5181 42.7579 33.4558 42.8076 33.4445 42.9403C33.4388 43.0122 33.4445 43.0897 33.4388 43.1615C33.4388 43.2721 33.3992 43.3717 33.2689 43.3772C33.1273 43.3827 33.0763 43.2832 33.0763 43.156C33.0763 43.0731 33.0763 42.9901 33.0763 42.9072C33.0763 42.8463 33.048 42.8076 32.9743 42.8021C32.895 42.7966 32.8497 42.8242 32.8497 42.9072C32.8497 43.0012 32.8497 43.0897 32.8497 43.1837C32.8497 43.3053 32.7817 43.3772 32.6628 43.3772C32.5495 43.3717 32.5042 43.2943 32.4985 43.1892C32.4928 43.0952 32.4985 43.0067 32.4928 42.9127C32.4872 42.8519 32.4532 42.8132 32.3852 42.8076C32.3172 42.8021 32.2662 42.8353 32.2662 42.8961C32.2606 43.0841 32.2153 43.2832 32.3456 43.4546C32.6118 43.7975 32.9913 43.4546 33.3029 43.6039C33.4218 43.6592 33.5975 43.521 33.6484 43.344C33.6881 43.3219 33.7221 43.3274 33.7617 43.3496C33.8807 43.6039 34.0676 43.6758 34.3339 43.5708C34.3849 43.5486 34.4302 43.5099 34.4925 43.5431C34.7927 43.7201 34.9966 43.5708 35.1779 43.3164C35.2685 43.4602 35.3705 43.615 35.5235 43.5984C35.784 43.5763 36.0446 43.615 36.2939 43.5929C36.5998 43.5652 36.6337 43.2943 36.6111 43.0399C36.6054 42.9514 36.6677 42.8187 36.4978 42.8076C36.3165 42.7966 36.3845 42.9348 36.3732 43.0233C36.3562 43.156 36.4355 43.3661 36.2146 43.3772C35.971 43.3883 36.0389 43.1726 36.022 43.0233C36.022 43.0067 36.022 42.9846 36.022 42.968C36.022 42.8685 35.988 42.8021 35.8803 42.8076C35.767 42.8187 35.7954 42.9072 35.7897 42.9791C35.7727 43.1339 35.8577 43.3661 35.6028 43.3661C35.3479 43.3661 35.4385 43.1284 35.4272 42.9735C35.4215 42.874 35.4045 42.7579 35.2799 42.8076C35.1609 42.8574 34.9343 42.6749 34.9117 42.9625C34.9003 43.1173 35.0023 43.3772 34.7247 43.3661C34.4755 43.3606 34.5831 43.1173 34.5661 42.968C34.5548 42.885 34.5718 42.7966 34.4415 42.8021C34.3282 42.8076 34.3395 42.8795 34.3282 42.9569C34.3055 43.1173 34.4132 43.3717 34.1413 43.3661C33.875 43.3606 33.9883 43.1007 33.9657 42.9459C33.9487 42.8132 33.9033 42.7579 33.7731 42.8463C33.7164 42.8463 33.6768 42.8463 33.6428 42.8463ZM48.575 43.3883C48.6203 43.3938 48.6656 43.3938 48.7109 43.3993C48.7562 43.6648 48.592 43.7422 48.3427 43.7477C48.7393 44.1182 49.2151 44.1459 49.6173 43.8528C49.9912 43.5818 50.1101 43.0675 49.8892 42.6639C49.6683 42.2546 49.1811 42.0611 48.7336 42.2049C48.2747 42.3542 48.0085 42.791 48.0878 43.2721C48.1105 43.3993 48.1218 43.5542 48.2521 43.5984C48.3824 43.6426 48.422 43.4878 48.4957 43.4104C48.5127 43.3993 48.5467 43.3993 48.575 43.3883ZM32.6798 5.69078C30.969 4.09816 28.9524 3.06407 26.6299 2.59955C26.4769 2.5719 26.4146 2.63826 26.3409 2.75439C25.4742 4.09263 23.5822 4.10922 22.7099 2.78204C22.5909 2.60508 22.4833 2.58296 22.2963 2.62167C21.5203 2.78204 20.7669 3.00877 20.0361 3.31844C18.6936 3.88803 17.4757 4.6401 16.4164 5.64101L16.422 5.63548C16.3994 5.65207 16.3767 5.67419 16.3484 5.69078C16.1784 5.78479 16.0085 5.88433 15.8329 5.97834C13.8559 7.08985 12.2528 8.57187 11.1142 10.5184C11.0066 10.6954 11.0179 10.8004 11.1538 10.9663C11.9979 11.9562 11.726 13.4548 10.6044 14.0631C10.5874 14.0465 10.5647 14.0244 10.5477 14.0078C10.5987 13.9304 10.6497 13.8529 10.7007 13.7811C11.1708 13.123 11.0972 12.2272 10.5194 11.652C9.95858 11.0935 9.03523 10.994 8.36679 11.4198C7.68703 11.8511 7.41512 12.664 7.69836 13.405C7.98159 14.146 8.735 14.5829 9.57338 14.4668C9.73199 14.4446 9.78297 14.4336 9.75465 14.6271C9.60737 15.8271 9.66401 17.0161 9.91326 18.1995C10.1342 19.2557 10.4627 20.2842 10.9782 21.2409C11.1765 22.0262 11.3578 22.8114 11.6523 23.569C12.2131 25.0068 13.0119 26.2953 14.0768 27.4289C14.1958 27.5561 14.2978 27.5893 14.462 27.5119C14.8132 27.3404 15.1871 27.3294 15.5667 27.3681C16.6429 27.4842 17.5436 28.5017 17.3907 29.6077C17.368 29.7902 17.4643 29.851 17.6003 29.9118C19.0788 30.5699 20.6309 30.8962 22.251 30.957C23.0158 30.9847 23.7748 30.9072 24.5339 30.8409C26.8281 31.1395 29.043 30.8796 31.173 29.9948C31.4392 29.8842 31.5468 29.7681 31.5412 29.4584C31.5072 27.9708 33.031 26.9478 34.4472 27.5063C34.6511 27.5893 34.7531 27.5616 34.8947 27.4068C36.5544 25.6317 37.5174 23.5248 37.9593 21.1801C38.0556 21.169 38.0613 21.0806 38.0952 21.0197C39.0469 18.9571 39.4661 16.8059 39.1829 14.5442C39.1659 14.4059 39.1149 14.3617 38.9846 14.3285C37.3702 13.9414 36.7697 12.1663 37.8403 10.9221C37.965 10.7783 37.9253 10.6898 37.8517 10.5626C37.0869 9.23546 36.0843 8.11289 34.8777 7.15621C34.2092 6.62534 33.4728 6.19953 32.7421 5.76267C32.7251 5.72949 32.7024 5.7129 32.6798 5.69078ZM24.4773 3.3295C25.4686 3.31291 26.2107 2.59955 26.205 1.67606C26.1993 0.752559 25.4006 -0.0160997 24.4603 0.00602C23.5199 0.0226098 22.7608 0.791269 22.7722 1.70371C22.7892 2.61061 23.5539 3.34056 24.4773 3.3295ZM39.4548 10.6069C38.4974 10.6069 37.7327 11.3258 37.727 12.2437C37.7157 13.1728 38.4918 13.9248 39.4491 13.9248C40.3951 13.9248 41.1655 13.1783 41.1655 12.2603C41.1599 11.3424 40.4065 10.6124 39.4548 10.6069ZM15.3004 31.0731C16.2294 31.0731 16.9885 30.3321 16.9942 29.4252C16.9998 28.5017 16.2351 27.7496 15.2947 27.7496C14.3204 27.7496 13.55 28.4907 13.5557 29.4142C13.5557 30.3432 14.3261 31.0731 15.3004 31.0731ZM33.6994 31.0787C34.6511 31.0787 35.4045 30.3487 35.4045 29.4197C35.4102 28.4796 34.6511 27.7441 33.6824 27.7496C32.7364 27.7496 31.9887 28.4907 31.9943 29.4197C31.9943 30.3487 32.7364 31.0731 33.6994 31.0787ZM1.70508 43.9689C1.94866 43.9689 2.19791 43.98 2.44149 43.9634C3.0023 43.9302 3.41583 43.4989 3.41583 42.968C3.41583 42.4261 2.99097 41.9837 2.4245 41.9615C1.943 41.945 1.4615 41.945 0.979997 41.9615C0.413525 41.9837 0 42.4316 0 42.9735C0 43.5099 0.40786 43.9247 0.974332 43.9579C1.21791 43.98 1.4615 43.9689 1.70508 43.9689Z" fill="#FEFEFE"/>
<path d="M10.9895 21.2352C10.474 20.273 10.1454 19.25 9.9245 18.1938C9.67525 17.0159 9.6186 15.8214 9.76589 14.6215C9.78854 14.4279 9.73756 14.439 9.58461 14.4611C8.7519 14.5772 7.99283 14.1404 7.70959 13.3993C7.42636 12.6583 7.69826 11.8454 8.37803 11.4141C9.05213 10.9828 9.96982 11.0823 10.5306 11.6464C11.1084 12.2215 11.1821 13.1173 10.7119 13.7754C10.6609 13.8528 10.6099 13.9302 10.5589 14.0021C10.5023 14.0242 10.406 14.0685 10.44 14.1127C10.4966 14.1901 10.5589 14.0961 10.6156 14.0574C11.7372 13.4491 12.0091 11.9505 11.1651 10.9606C11.0291 10.8003 11.0178 10.6952 11.1254 10.5127C12.264 8.56619 13.8671 7.08417 15.8441 5.97266C16.0141 5.87865 16.184 5.77911 16.3596 5.6851C16.3823 5.66851 16.4049 5.64639 16.4333 5.6298L16.4276 5.63533C16.5012 5.6298 16.5749 5.62427 16.6485 5.61321C17.283 5.48049 17.6852 5.7957 17.6795 6.42058C17.5549 6.69708 17.3 6.82979 17.0451 6.96251C17.0281 6.9791 17.0111 6.99569 16.9941 7.01228C16.7222 7.07311 16.5069 7.21689 16.3086 7.39938C15.2097 8.02426 14.3033 8.85375 13.4933 9.80489C13.3517 9.97632 13.4819 10.0206 13.5952 10.0869C14.36 10.5404 15.119 11.0049 15.8894 11.4473C16.0537 11.5413 16.082 11.6021 15.9801 11.7735C15.119 13.1947 14.6149 14.7376 14.4506 16.38C14.4336 16.5569 14.3713 16.5956 14.207 16.5846C13.448 16.5237 12.6832 16.4629 11.9241 16.4187C11.1877 16.3744 11.2104 16.38 11.2954 17.1099C11.4087 18.1053 11.6692 19.062 12.0035 20.0021C11.5276 19.8859 11.2161 20.0518 11.0348 20.4998C10.9441 20.7431 11.0008 20.9919 10.9895 21.2352ZM10.355 14.1791C10.3494 14.1735 10.3437 14.1625 10.338 14.1625C10.3324 14.1625 10.3267 14.168 10.321 14.1735C10.3267 14.1791 10.3324 14.1901 10.338 14.1901C10.3437 14.1901 10.3494 14.1846 10.355 14.1791Z" fill="#B259C1"/>
<path d="M10.9894 21.2352C11.0008 20.9919 10.9441 20.743 11.0404 20.5052C11.216 20.0518 11.5276 19.8859 12.0091 20.0075C12.3546 20.2287 12.3716 20.5882 12.4339 20.9366C12.4396 20.9532 12.4453 20.9697 12.4566 20.9863C12.4623 21.0085 12.4679 21.0361 12.4736 21.0582C12.4906 21.2628 12.5246 21.4674 12.6152 21.6555C12.9154 22.8499 13.4196 23.9504 14.0994 24.9789C14.2013 25.1338 14.2693 25.0895 14.3826 24.9955C14.9887 24.4812 15.6005 23.978 16.2066 23.4637C16.6315 23.1043 16.6258 23.1043 16.9884 23.5024C17.0337 23.5522 17.079 23.5965 17.1243 23.6407C18.1836 24.6859 19.3959 25.5153 20.7837 26.1015C20.9027 26.1513 21.0556 26.1623 20.9593 26.3835C20.6025 27.1854 20.2739 28.0038 19.9114 28.8001C19.8094 29.0213 19.8377 29.0932 20.0813 29.154C21.2313 29.4526 22.4039 29.5301 23.5821 29.4748C23.8597 29.4803 24.1316 29.4637 24.4035 29.3973C24.766 29.3863 25.1399 29.2536 25.4855 29.4858C25.7744 29.9282 25.6894 30.3153 25.2419 30.6139C25.0323 30.7577 24.7887 30.7743 24.5564 30.8351C23.7974 30.907 23.0383 30.9844 22.2736 30.9513C20.6535 30.8904 19.1013 30.5642 17.6228 29.9061C17.4869 29.8453 17.3849 29.7844 17.4132 29.602C17.5662 28.496 16.6655 27.484 15.5892 27.3623C15.2097 27.3236 14.8301 27.3347 14.4846 27.5061C14.3203 27.5891 14.224 27.5504 14.0994 27.4232C13.0344 26.2895 12.2357 24.9955 11.6749 23.5633C11.369 22.8057 11.1877 22.0204 10.9894 21.2352Z" fill="#FBB562"/>
<path d="M24.5508 30.8295C24.783 30.7687 25.0266 30.7521 25.2362 30.6083C25.6837 30.3097 25.7687 29.9226 25.4798 29.4802C26.6354 29.5245 27.7797 29.4304 28.9013 29.1484C29.1052 29.0987 29.1619 29.0434 29.0656 28.8387C28.72 28.0424 28.3971 27.2406 28.0459 26.4443C27.9553 26.2397 27.9893 26.1733 28.1989 26.0848C29.734 25.4378 31.0709 24.5033 32.1755 23.2756C32.3228 23.1097 32.4077 23.1429 32.5494 23.2646C33.2178 23.8342 33.8976 24.3872 34.5603 24.9623C34.7303 25.106 34.7983 25.0895 34.9116 24.9125C35.3987 24.1604 35.8009 23.3752 36.0898 22.5346C36.1974 22.2305 36.3334 21.9319 36.3561 21.6111C36.39 21.1743 36.594 20.7816 36.6733 20.3614C36.7016 20.2065 36.8432 20.1015 36.9678 20.0019C37.3984 19.8913 37.6986 20.0241 37.8912 20.4111C38.0102 20.6545 38.0215 20.9033 37.9705 21.1632C37.5287 23.5134 36.5657 25.6148 34.9059 27.3899C34.7643 27.5392 34.6623 27.5669 34.4584 27.4894C33.0479 26.9365 31.5184 27.954 31.5524 29.4415C31.558 29.7512 31.4504 29.8673 31.1842 29.9779C29.0542 30.8738 26.8393 31.1337 24.5508 30.8295Z" fill="#2399D4"/>
<path d="M37.9763 21.1689C38.0273 20.909 38.016 20.6601 37.897 20.4168C37.7044 20.0297 37.4042 19.8915 36.9737 20.0076C37.0076 19.9025 37.0416 19.7975 37.0756 19.6924C37.4325 18.697 37.6478 17.674 37.7214 16.6233C37.7327 16.4353 37.6987 16.38 37.4778 16.3966C36.6224 16.474 35.7671 16.5072 34.9117 16.5956C34.5945 16.6288 34.5265 16.5293 34.4982 16.2528C34.3396 14.6712 33.8354 13.2003 33.0197 11.8289C32.9064 11.6353 32.9121 11.5468 33.1216 11.4307C33.8637 11.0104 34.5888 10.5625 35.3196 10.1256C35.6028 9.95974 35.6028 9.95421 35.3819 9.6943C34.6171 8.79292 33.7221 8.03532 32.7138 7.40491C32.5438 7.28879 32.3852 7.14501 32.1643 7.12289L32.17 7.12842C32.1473 7.1063 32.1303 7.08971 32.1077 7.06759L32.1133 7.07312C32.0963 7.05653 32.0793 7.04547 32.0623 7.02888C31.7508 6.85745 31.3939 6.73026 31.2693 6.3487C31.2919 5.92289 31.4676 5.72382 31.8811 5.60769C32.1643 5.52474 32.4136 5.66852 32.6798 5.69064L32.6741 5.68511C32.6968 5.70723 32.7251 5.72382 32.7478 5.74594C33.4785 6.1828 34.2149 6.6086 34.8834 7.13948C36.09 8.09615 37.0926 9.21873 37.8574 10.5459C37.931 10.6786 37.9706 10.7616 37.846 10.9054C36.7754 12.1496 37.3759 13.9247 38.9903 14.3118C39.1206 14.345 39.1716 14.3892 39.1886 14.5275C39.4718 16.7892 39.0526 18.9403 38.1009 21.003C38.0839 21.0694 38.0726 21.1578 37.9763 21.1689Z" fill="#8CC463"/>
<path d="M32.6798 5.69605C32.4135 5.67393 32.1643 5.53015 31.881 5.6131C31.4675 5.73476 31.2919 5.92831 31.2693 6.35411C30.3629 5.6684 29.3942 5.08223 28.3293 4.66749C27.9724 4.52924 27.9724 4.52924 27.8818 4.89974C27.6835 5.71264 27.4796 6.52554 27.2926 7.33844C27.253 7.52093 27.185 7.55411 27.0037 7.5154C25.3609 7.15042 23.7125 7.15042 22.0697 7.50987C21.8658 7.55411 21.7978 7.5154 21.7525 7.31632C21.5543 6.45365 21.3333 5.60204 21.1294 4.7449C21.0954 4.59007 21.0444 4.51818 20.8688 4.60666C20.7272 4.67854 20.5743 4.72831 20.427 4.78914C19.43 5.19836 18.535 5.779 17.6853 6.42047C17.6909 5.79559 17.2831 5.48038 16.6543 5.6131C16.5806 5.62969 16.507 5.62969 16.4333 5.63522C17.487 4.63431 18.7106 3.88224 20.0531 3.31265C20.7782 3.00298 21.5373 2.78178 22.3133 2.61588C22.5003 2.57717 22.6136 2.59929 22.7269 2.77625C23.5992 4.10343 25.4912 4.08684 26.3579 2.7486C26.4316 2.638 26.4939 2.56611 26.6468 2.59376C28.9524 3.06381 30.969 4.0979 32.6798 5.69605Z" fill="#ED4A6B"/>
<path d="M24.4773 3.32928C23.5539 3.34587 22.7835 2.61039 22.7778 1.69795C22.7665 0.785514 23.5256 0.0168553 24.4659 0.000265481C25.4063 -0.0163243 26.205 0.746805 26.2107 1.6703C26.2163 2.59933 25.4686 3.31269 24.4773 3.32928Z" fill="#ED4A6B"/>
<path d="M39.4548 10.6066C40.4065 10.6066 41.1655 11.342 41.1655 12.2655C41.1655 13.1835 40.3951 13.9301 39.4491 13.9301C38.4918 13.9301 37.7157 13.1725 37.7271 12.249C37.7327 11.3255 38.4918 10.6066 39.4548 10.6066Z" fill="#8CC563"/>
<path d="M15.3004 31.0729C14.3261 31.0729 13.5614 30.343 13.5557 29.414C13.55 28.4849 14.3204 27.7495 15.2948 27.7495C16.2351 27.7495 16.9998 28.5015 16.9942 29.425C16.9885 30.3319 16.2238 31.0729 15.3004 31.0729Z" fill="#FBB562"/>
<path d="M33.6993 31.0785C32.742 31.0785 31.9943 30.354 31.9943 29.4195C31.9943 28.4849 32.7363 27.7495 33.6823 27.7495C34.651 27.7495 35.4044 28.4794 35.4044 29.4195C35.3988 30.3485 34.651 31.0785 33.6993 31.0785Z" fill="#2399D4"/>
<path d="M46.649 47.8672C46.666 47.906 46.6774 47.9447 46.6944 47.9778C46.666 47.9834 46.6377 47.9944 46.6037 48C46.5301 47.8838 46.4281 47.9281 46.3375 47.9613C46.2525 47.9944 46.1845 48 46.1052 47.917C46.2922 47.8451 46.4848 47.9668 46.649 47.8672Z" fill="#F9FBFB"/>
<path d="M46.6603 47.6129C46.6887 47.6848 46.7113 47.7567 46.649 47.8231C46.632 47.7512 46.615 47.6848 46.598 47.6129C46.6207 47.6129 46.6433 47.6129 46.6603 47.6129Z" fill="#F9FBFB"/>
<path d="M32.7533 5.75138C32.7307 5.72926 32.7023 5.71267 32.6797 5.69055C32.7023 5.71267 32.725 5.72926 32.7533 5.75138Z" fill="#ED4A6B"/>
<path d="M16.4276 5.63525C16.405 5.65184 16.3823 5.67396 16.354 5.69055C16.3767 5.66843 16.3993 5.65184 16.4276 5.63525Z" fill="#ED4A6B"/>
<path d="M16.9885 7.01221C16.8016 7.21128 16.6317 7.43801 16.3031 7.3993C16.5014 7.21681 16.7166 7.07304 16.9885 7.01221Z" fill="#ED4A6B"/>
<path d="M10.6099 14.0574C10.5533 14.0961 10.491 14.1846 10.4343 14.1127C10.4003 14.0684 10.4966 14.0242 10.5533 14.0021C10.5703 14.0242 10.5929 14.0408 10.6099 14.0574Z" fill="#FEFEFE"/>
<path d="M10.3544 14.1794C10.3488 14.1851 10.3432 14.1907 10.3377 14.1907C10.3321 14.1907 10.3266 14.1794 10.321 14.1738C10.3266 14.1681 10.3321 14.1625 10.3377 14.1625C10.3432 14.1625 10.3488 14.1738 10.3544 14.1794Z" fill="#FEFEFE"/>
<path d="M23.5765 29.4692C23.8371 29.2812 24.1204 29.342 24.3979 29.3918C24.126 29.4581 23.8541 29.4747 23.5765 29.4692Z" fill="#2399D4"/>
<path d="M12.468 21.0582C12.5983 21.2407 12.6663 21.4287 12.6096 21.6555C12.5133 21.4619 12.485 21.2628 12.468 21.0582Z" fill="#B259C1"/>
<path d="M12.4285 20.931C12.434 20.9476 12.4396 20.9641 12.4507 20.9807C12.4396 20.9697 12.434 20.9476 12.4285 20.931Z" fill="#B259C1"/>
<path d="M32.7137 7.41032C32.4701 7.42691 32.3058 7.29972 32.1642 7.1283C32.3908 7.15042 32.5437 7.29419 32.7137 7.41032Z" fill="#ED4A6B"/>
<path d="M32.1699 7.12833C32.1472 7.10621 32.1302 7.08962 32.1075 7.0675C32.1302 7.08962 32.1529 7.11174 32.1699 7.12833Z" fill="#ED4A6B"/>
<path d="M32.1134 7.07311C32.0964 7.05652 32.0794 7.04546 32.0624 7.02887C32.0794 7.04546 32.0964 7.06205 32.1134 7.07311Z" fill="#ED4A6B"/>
<path d="M38.6675 47.8894C38.6618 47.9281 38.6108 47.9945 38.4975 47.989C38.3899 47.9834 38.3219 47.9171 38.3276 47.812C38.3276 47.707 38.3956 47.6406 38.5089 47.6517C38.6052 47.6572 38.6845 47.7014 38.6675 47.8894Z" fill="#F9FBFB"/>
<path d="M41.3128 47.8231C41.2901 47.9393 41.2222 48.0001 41.1202 47.989C41.0126 47.978 40.9559 47.9005 40.9672 47.7955C40.9729 47.6959 41.0522 47.6572 41.1429 47.6572C41.2561 47.6572 41.3015 47.7236 41.3128 47.8231Z" fill="#F9FBFB"/>
</svg>
