<svg width="32" height="31" viewBox="0 0 32 31" fill="none" xmlns="http://www.w3.org/2000/svg">
<path d="M5.18508 2.56101C4.97264 2.61897 4.95494 2.75421 5.09656 2.92809C5.09656 3.12129 5.07886 3.29517 5.07886 3.48837C4.77791 3.60429 4.93724 3.9134 4.83102 4.12592C4.77791 5.2658 4.01669 6.11588 3.76885 7.1978C3.39709 7.73876 3.22007 8.37632 2.97223 8.99456V9.05251C2.91912 9.12979 2.86601 9.2264 2.8129 9.30368C2.37033 10.347 1.78614 11.3129 1.48519 12.4335C1.07802 13.1097 1.39667 13.6507 1.78613 14.1723C2.14019 14.4041 2.26411 14.9065 2.68898 15.0803C3.07844 15.3122 3.48561 15.4088 3.92818 15.4474C4.03439 15.4667 4.14061 15.5054 4.24683 15.5247C4.26453 19.7558 4.28223 23.9868 4.28223 28.2372C4.15831 28.9134 4.33534 29.2805 5.04346 29.1839C5.41521 29.126 5.80468 29.1646 6.17644 29.1646C6.6013 29.1839 7.04387 29.2226 7.46874 29.2419C7.48644 29.2419 7.52185 29.2612 7.53955 29.2612C7.52185 29.2419 7.50415 29.2226 7.50415 29.2032C7.50415 29.1646 7.48644 29.126 7.46874 29.0873C9.34524 29.0873 11.2394 29.0873 13.1159 29.0873C13.1336 29.3771 13.0451 29.7249 13.47 29.7635C13.1868 30.942 14.7623 30.0147 14.6384 31C14.7092 30.9807 14.7977 30.9614 14.8508 30.9227C14.9216 30.8841 14.9747 30.8068 15.0455 30.7295C15.2934 30.6909 15.612 30.8454 15.736 30.459C15.9484 29.7442 16.4795 29.7442 17.0283 29.7442C19.3296 29.7442 21.6133 29.7635 23.9147 29.7442C24.2333 29.7442 24.6582 29.9567 24.7821 29.3771C26.0213 29.4544 27.349 29.068 28.4466 30.0726C28.5174 30.1306 28.7121 29.9954 28.8537 29.9567C29.4556 30.2852 29.7035 29.8794 29.7212 29.3385C29.7212 28.8168 30.0929 27.9281 29.0308 28.0247C29.0308 23.8323 29.0308 19.6592 29.0308 15.4667C29.3317 15.4474 29.615 15.7952 29.969 15.544C29.8628 15.3122 29.5619 15.2542 29.5619 14.9644C29.5973 14.9065 29.6327 14.8678 29.7035 14.8678C31.0312 14.6939 31.1551 14.5201 30.9604 13.1677C31.0843 13.1097 31.2082 13.0324 31.3321 12.9745C31.3321 12.5881 31.2613 12.221 31.2082 11.8346C31.1197 11.2743 30.925 10.6174 31.6862 10.3083C31.8986 10.2117 32.0934 9.86395 31.9517 9.57415C31.7393 9.14912 31.4384 9.53552 31.1728 9.5162C30.9427 9.5162 30.6948 9.5162 30.4647 9.5162C30.0929 9.59348 29.8451 9.30368 29.5619 9.1298C29.6504 8.87864 29.8628 8.56952 29.6504 8.33768C29.3848 8.0672 29.4556 8.76272 29.1724 8.62748C29.1193 8.60816 29.0662 8.58884 29.0131 8.58884C28.9777 8.56952 28.9246 8.5502 28.8892 8.53088V8.5502C28.8183 8.41496 28.7652 8.27972 28.6944 8.14448C28.7121 8.08652 28.6944 8.02856 28.659 7.98992C28.6236 7.91264 28.5882 7.83536 28.5351 7.75808H28.5528C28.482 7.46828 28.3935 7.1978 28.181 6.98528L28.1987 7.0046C28.1279 6.85004 28.0748 6.69548 28.004 6.56024C28.0217 6.5216 28.0217 6.48296 27.9686 6.44432C27.9509 6.15452 27.8447 5.942 27.65 5.7488L27.6677 5.71016L27.6323 5.67152C27.6323 5.5556 27.5969 5.459 27.4906 5.42036L27.5083 5.40104C27.4375 5.0726 27.3313 4.74416 27.1189 4.47368C27.0481 4.2998 26.995 4.12592 26.9241 3.95204C26.8002 3.50768 27.2605 2.96672 26.7471 2.58032C26.5701 2.561 26.3931 2.52237 26.2337 2.50305C26.2337 2.44509 26.2337 2.38713 26.216 2.32917C26.216 2.13597 26.216 1.94277 26.2337 1.74957C26.3931 1.84617 26.5524 2.00073 26.7471 1.82685C26.9064 1.69161 26.9064 1.53705 26.7471 1.38249C26.9418 0.725612 27.0304 0.184649 26.0921 0.551728C25.8266 0.648328 25.5079 0.609692 25.2247 0.609692C21.33 0.609692 17.4531 0.609692 13.5585 0.609692C13.2753 0.609692 12.9389 0.47445 12.6557 0.860849C13.0628 1.05405 13.4169 0.97677 13.7532 0.97677C17.0814 0.97677 20.4095 0.97677 23.7376 0.97677C25.0299 0.97677 25.6672 1.44045 25.7026 2.29053C25.6849 2.34849 25.6849 2.38713 25.6849 2.44509C25.5079 2.42577 25.3309 2.42577 25.1716 2.40645C24.9768 1.90413 24.552 2.11665 24.2333 2.11665C19.489 2.09733 14.7623 2.11665 10.0179 2.09733C9.04429 2.09733 8.03523 2.23257 7.11469 1.71093C7.11469 1.57569 7.11469 1.45977 7.11469 1.32453C7.11469 1.18929 7.11469 1.07337 7.11469 0.938128C7.09698 0.590368 7.2032 0.184653 6.79603 0.0300929C6.40657 -0.105147 6.31806 0.242614 6.19414 0.532413C6.10562 0.744933 5.91089 0.74493 5.76927 0.590371C5.60994 0.416491 5.52143 0.0880504 5.22048 0.28125C4.91954 0.47445 5.07886 0.764249 5.11427 1.05405C5.13197 1.26657 5.04346 1.47909 5.00805 1.71093C4.90183 1.73025 4.74251 1.74957 4.74251 1.88481C4.76021 2.15529 5.02575 2.15529 5.16737 2.29053C5.16737 2.40645 5.18508 2.48373 5.18508 2.56101ZM0.387613 12.5687C-0.125769 12.7233 -0.0549571 13.1483 0.17518 13.4381C0.352208 13.6507 0.529235 13.3995 0.564641 13.1483C0.865589 13.4188 0.670857 13.8245 0.777074 14.1337C0.830183 14.2882 0.918697 14.4428 1.09573 14.3848C1.23735 14.3462 1.25505 14.2109 1.21964 14.0757C0.9364 12.7813 0.9364 11.5641 1.89235 10.5402C2.01627 10.4049 2.01627 10.1538 1.89235 10.0185C1.71532 9.82531 1.5737 10.0378 1.44978 10.1538C0.759372 10.7913 0.36991 11.5641 0.387613 12.5687ZM3.75115 28.0247C2.8306 28.2372 3.20236 28.8555 3.4325 29.3771C3.52101 29.5703 3.55642 30.0726 3.92818 29.8794C4.21142 29.7249 3.87507 29.4351 3.92818 29.1839C4.17602 28.9521 4.10521 28.6623 4.10521 28.3725C4.10521 24.4892 4.10521 20.5865 4.10521 16.7032C4.10521 16.568 4.10521 16.4521 4.10521 16.3168C4.0875 16.1236 4.0698 15.9111 3.82196 15.9304C3.64493 15.9497 3.59182 16.1236 3.59182 16.2782C3.59182 16.5293 3.59182 16.7998 3.57412 17.051C3.4679 20.7025 3.87507 24.3539 3.75115 28.0247ZM12.1069 0.918812C12.1069 0.860853 12.1069 0.802893 12.1069 0.725613C10.6552 0.725613 9.22132 0.725613 7.76969 0.725613C7.76969 0.783573 7.76969 0.841533 7.76969 0.918812C9.22132 0.918812 10.6552 0.918812 12.1069 0.918812ZM2.15789 5.42036C2.10479 6.0386 2.40573 6.85004 2.68898 6.8114C3.34398 6.7148 2.65357 6.0386 2.8483 5.63288C2.86601 5.57492 2.8483 5.49764 2.8483 5.43968C2.8483 5.11124 2.8483 4.72484 2.45884 4.72484C1.99857 4.72484 2.22871 5.18852 2.15789 5.42036ZM3.64493 5.88404C3.98128 5.28512 4.21142 4.89873 4.40615 4.49301C4.47696 4.33845 4.49467 4.10661 4.29994 3.99069C4.14061 3.91341 4.03439 4.06796 3.92818 4.16456C3.4679 4.57028 3.53871 5.09192 3.64493 5.88404Z" fill="#F4F4F4"/>
<path d="M4.30006 28.1985C4.28235 23.9675 4.26465 19.7364 4.26465 15.486C4.97276 15.3894 5.68088 15.2542 6.24737 14.6939C6.42439 14.6359 6.54831 14.5007 6.60142 14.3075C6.65453 14.2495 6.70764 14.1723 6.76075 14.1143C6.83156 13.9791 6.88467 13.8631 6.95548 13.7279C7.04399 13.5927 7.15021 13.4574 7.25643 13.3029C7.80521 15.1576 9.39847 15.9497 11.2219 15.2928C11.7175 15.4281 12.4079 15.8917 12.6027 15.061C12.7974 14.2109 13.1869 14.5973 13.3285 14.8485C13.8065 15.6792 14.6916 15.6213 15.3112 15.7565C16.4619 15.9883 17.7011 15.8145 18.6924 14.9064C18.9049 14.7132 19.2412 14.5393 19.4006 14.8098C19.7192 15.4087 20.1795 15.2349 20.6221 15.2349C21.1885 15.2735 21.6488 15.8917 22.2684 15.6213C23.065 15.2735 23.9325 15.0223 24.4636 14.1916C24.8176 13.6313 25.0478 13.7859 25.3841 14.2109C25.7028 14.6166 26.0214 15.061 26.5879 15.0996C26.8889 15.3894 27.2783 15.3894 27.6501 15.4667C27.6501 19.3114 27.6501 23.1367 27.6501 26.9814C27.6501 27.3292 27.5616 27.6962 27.7563 28.0053C27.7563 28.1792 27.7563 28.3531 27.7386 28.527C27.5262 28.5656 27.3314 28.6236 27.3137 28.8941C23.5607 28.8941 19.8254 28.8747 16.0724 28.8747C15.4174 28.8168 15.2404 28.4497 15.2581 27.7542C15.2935 25.7836 15.2758 23.7936 15.2581 21.823C15.2581 21.5332 15.3997 21.1854 15.0988 20.9342C14.9217 20.2001 14.727 19.4659 14.55 18.7318C14.5323 18.4033 14.6562 18.1135 14.7978 17.8237C14.9394 17.5339 14.9395 17.2634 14.6562 17.0702C14.4084 16.8964 14.1605 16.6839 13.8419 16.935C13.6471 17.0896 13.4878 17.2635 13.3108 17.418C13.1869 17.3407 13.0807 17.2635 12.9567 17.1862C12.9567 17.1282 12.9567 17.0703 12.9567 17.0123C13.0098 16.935 13.1692 16.9157 13.0275 16.7804C13.0098 16.8577 12.9921 16.935 12.9567 17.0123C12.8859 17.0123 12.8151 17.0316 12.7443 17.0316C12.6912 17.0316 12.6381 17.0123 12.6027 16.9736C12.2309 16.5293 10.1066 15.9111 9.64631 16.1429C9.46928 16.2395 9.43387 16.4327 9.45158 16.6452V16.6259C9.07982 16.6452 8.54873 16.3747 8.53103 17.1475C8.42481 17.2248 8.31859 17.3021 8.21238 17.3794C7.94684 17.36 7.6813 17.3407 7.66359 17.7464C6.74305 17.6885 6.74304 18.5965 6.4775 19.1954C6.17655 19.1375 6.19426 18.5193 5.78709 18.7897C5.69858 18.8477 5.61006 18.9636 5.59236 19.0795C5.52155 19.5432 5.92872 19.408 6.10574 19.5432C6.22966 19.6398 6.31818 19.7557 6.42439 19.8523C6.40669 20.1421 6.4952 20.4706 6.26507 20.7217C5.92871 20.9342 6.07034 21.3013 6.07034 21.5911C6.05264 23.6004 6.08804 25.629 6.05263 27.6383C6.05263 28.0247 6.31818 28.6429 5.68087 28.7202C5.16749 28.8361 4.53019 29.01 4.30006 28.1985ZM13.8242 16.0463C13.718 16.0656 13.594 16.0656 13.5586 16.2202C13.5586 16.2588 13.6294 16.3361 13.6471 16.3168C13.8065 16.2975 13.8065 16.1622 13.8242 16.0463C13.9304 16.027 14.0543 16.027 14.0897 15.8724C14.0897 15.8338 14.0189 15.7565 14.0012 15.7758C13.8419 15.7951 13.8419 15.9304 13.8242 16.0463ZM20.7106 17.2055C20.5335 17.1862 20.3742 17.1862 20.1972 17.1668C18.303 16.8191 17.2054 17.2055 17.3647 19.1375C17.2231 19.2148 17.1877 19.3693 17.1877 19.5432C17.1877 19.6591 17.1877 19.7944 17.1877 19.9103C17.0815 19.9876 16.993 20.1614 17.0815 20.2194C17.825 20.7217 17.7011 21.5138 17.7011 22.2673C17.7011 23.156 17.7011 24.0641 17.7011 24.9528C17.4533 25.571 17.8781 25.5131 18.1791 25.5131C20.5512 25.5131 22.9234 25.5131 25.2956 25.5131C25.4903 25.5131 25.7559 25.5904 25.7913 25.2619C25.8267 24.8562 25.508 24.9528 25.2956 24.8948C25.2956 23.9675 25.331 23.0401 25.2779 22.1128C25.2248 21.3013 25.2779 20.5672 25.986 20.0842C25.986 19.9682 25.986 19.8523 25.986 19.7364C26.1276 19.0988 25.809 18.5579 25.632 17.9976C25.2956 17.0316 24.6406 16.7804 23.6846 17.2634C23.4545 17.2441 23.2421 17.2441 23.0119 17.2248C22.9588 17.1089 22.888 17.1089 22.8349 17.2248C22.7287 17.2248 22.6225 17.2441 22.5163 17.2441C21.9321 17.0316 21.3302 17.0123 20.7106 17.2055ZM12.762 16.4134C12.8682 16.4134 13.0098 16.4134 13.0098 16.2395C13.0098 16.0849 12.8859 16.0656 12.762 16.0656C12.6558 16.0656 12.5142 16.0656 12.5142 16.2395C12.5319 16.3941 12.6558 16.4134 12.762 16.4134ZM25.7913 21.707C25.7736 21.6491 25.7559 21.5718 25.7382 21.5525C25.7028 21.5332 25.6497 21.5911 25.5965 21.6104C25.6143 21.6684 25.6143 21.7457 25.6497 21.765C25.6851 21.765 25.7382 21.7264 25.7913 21.707Z" fill="#FCCC04"/>
<path d="M12.9387 17.1862C13.0627 17.2635 13.1689 17.3408 13.2928 17.418C13.6646 17.901 13.9478 18.4806 14.532 18.7318C14.709 19.466 14.9037 20.2001 15.0808 20.9343C15.0808 23.6198 15.0808 26.2859 15.0985 28.9714C14.6205 28.9907 14.1602 29.0293 13.6823 29.0487C13.5052 29.0487 13.3105 29.0487 13.1335 29.0487C11.257 29.0487 9.36277 29.0487 7.48627 29.0487C7.0791 28.8555 6.67194 28.7782 6.24707 28.9521C6.24707 26.2086 6.24707 23.4845 6.26477 20.7411C6.49491 20.4899 6.4064 20.1615 6.4241 19.8717C6.83126 19.1762 7.25613 18.4613 7.6633 17.7658C7.92884 17.7658 8.10587 17.6306 8.21208 17.3987C8.3183 17.3214 8.42452 17.2442 8.53073 17.1669C8.83168 16.993 9.15033 16.8191 9.45128 16.6452V16.6646C10.5312 16.51 11.5756 16.51 12.6024 16.993C12.6555 17.0316 12.6909 17.051 12.744 17.051C12.7971 17.0896 12.8679 17.1476 12.9387 17.1862Z" fill="#522D24"/>
<path d="M1.50293 12.3949C1.80388 11.2936 2.38807 10.3083 2.83064 9.26502C2.93686 9.22638 3.00767 9.1491 2.98997 9.01386V8.9559C3.27321 9.3423 3.69808 9.65142 3.59186 10.2503C3.2201 10.231 3.29091 10.6947 3.06078 10.8299C3.04308 10.6561 3.07848 10.3276 2.90145 10.3856C2.45888 10.5401 2.52969 11.0038 2.54739 11.4482C2.79523 11.2743 2.77753 10.9072 3.06078 10.8493C3.39713 11.0618 2.86605 11.7766 3.36173 11.7187C3.8043 11.6607 3.52105 11.0231 3.59186 10.6561C3.60957 10.5401 3.59186 10.4049 3.59186 10.2697C4.31768 9.97986 4.91957 8.97522 4.79565 8.20242C4.76025 7.95126 4.61862 7.66146 4.35308 7.97058C4.21146 8.12514 4.15835 8.41494 3.91051 8.22174C3.71578 8.06718 3.78659 7.81602 3.85741 7.6035C3.91051 7.44894 3.92822 7.29438 3.8043 7.17846C4.05214 6.11587 4.81336 5.26579 4.86647 4.10659C4.99039 4.04863 5.1143 3.97135 5.25593 3.91339C5.64539 3.91339 6.03485 3.91339 6.44202 3.91339C7.25634 4.16455 8.10608 3.79747 8.90271 4.04863C8.8496 4.49299 8.77879 4.95667 8.72568 5.40102V5.43967C8.70798 5.45899 8.67257 5.45898 8.67257 5.4783C8.67257 5.51694 8.69027 5.57491 8.69027 5.61355C8.67257 5.74879 8.63717 5.88403 8.61946 6.01927C8.60176 6.15451 8.58406 6.27043 8.56635 6.40567C8.53095 6.54091 8.49554 6.67615 8.47784 6.81139C8.37162 7.17847 8.19459 7.54554 8.2477 7.95126C8.23 8.10582 8.19459 8.2797 8.17689 8.43426C7.96446 9.30366 7.75202 10.1731 7.53959 11.0425C7.30945 11.2357 7.36256 11.4868 7.39797 11.738L7.43337 11.7766L7.41567 11.8153C6.79607 11.7959 6.81378 12.2789 6.81378 12.7426V12.7619C6.45972 12.4335 6.10566 12.704 5.75161 12.7619C4.51241 12.7619 3.27321 12.7619 2.03401 12.7619C1.71536 12.7813 1.62685 12.5494 1.50293 12.3949Z" fill="#FA641B"/>
<path d="M28.659 7.93191C28.7121 7.97055 28.7121 8.02851 28.6944 8.08647C28.6944 8.26035 28.7121 8.41491 28.8892 8.49219V8.47287C28.8537 8.68539 28.8537 8.91723 28.8006 9.11043C28.7121 9.36159 28.1633 9.45819 28.6236 9.90255C28.96 10.2117 29.137 10.7913 29.7212 10.4049C29.8274 11.1777 30.4824 11.6993 30.4647 12.5107C30.4647 12.588 30.4647 12.646 30.4647 12.7233C30.1106 12.5107 29.7566 12.8005 29.4025 12.7039C29.3494 12.4914 29.5265 12.105 29.2255 12.105C28.9246 12.105 29.1016 12.4914 29.0485 12.7039C28.8183 12.7039 28.5705 12.7039 28.3404 12.7039C28.3404 12.2596 28.3404 11.8152 28.3404 11.3709C28.7652 11.2743 28.7121 11.0231 28.5705 10.6754C28.2342 10.8492 28.3758 11.139 28.3404 11.3709C27.2605 11.2936 27.7385 12.1823 27.6323 12.7039C26.8002 12.7039 25.9859 12.7233 25.1539 12.7233C25.0299 12.7233 24.906 12.7039 24.7821 12.7039C24.7467 12.3948 24.7467 12.0664 24.6936 11.7573C24.2687 9.49683 23.8261 7.25571 23.4013 4.99528C23.7022 5.16916 24.0386 5.22712 24.0386 4.76344C24.0386 4.20316 23.5783 4.47364 23.2951 4.45432C23.2597 4.31908 23.2243 4.18384 23.1711 4.0486C23.2065 4.0486 23.242 4.02928 23.2597 3.99064C23.3128 3.99064 23.3482 3.99064 23.3659 3.952C23.4898 3.952 23.596 3.93268 23.7199 3.93268C23.7376 3.97132 23.7553 4.00996 23.7907 4.02928C23.8084 4.16452 23.8438 4.1452 23.8793 4.02928C24.074 4.00996 24.2687 3.99064 24.4634 3.952C24.6051 4.31908 24.9237 4.16452 25.1716 4.22248C25.6849 5.0146 25.1539 5.22712 24.3926 5.38168C25.1362 5.76807 26.0036 5.22712 26.2691 6.23176C26.2691 6.25108 26.4816 6.23176 26.4816 6.21244C26.5878 5.74876 27.1366 5.80672 27.2782 5.401C27.349 5.38168 27.4375 5.36236 27.5083 5.34304L27.4906 5.36236C27.5437 5.43964 27.5968 5.51692 27.6323 5.61352L27.6677 5.65216L27.65 5.6908C27.6323 5.9806 27.5614 6.30904 27.9686 6.38632C28.004 6.40564 28.0217 6.44428 28.004 6.50224C27.9863 6.69544 28.004 6.86931 28.1987 6.94659L28.181 6.92727C28.1987 7.25571 28.004 7.68075 28.5528 7.70007H28.5351C28.5882 7.77735 28.6236 7.85463 28.659 7.93191Z" fill="#FA641B"/>
<path d="M24.4457 3.99069C24.251 4.01001 24.0562 4.02933 23.8615 4.06797C23.8261 4.06797 23.8084 4.06797 23.773 4.06797C23.7376 4.04865 23.7199 4.01001 23.7022 3.97137C23.6668 3.79749 23.7022 3.54633 23.4367 3.60429C22.1089 3.85545 20.7812 3.64293 19.4535 3.72021C19.188 3.73953 18.8162 3.58497 18.8162 4.10661L18.7985 4.08729C16.9574 4.06797 15.0986 4.06797 13.2575 4.04865C11.7882 3.77817 10.3189 3.79749 8.84952 4.04865C8.03519 3.77817 7.18546 4.16457 6.38883 3.91341C6.33572 3.79749 6.28262 3.60429 6.24721 3.60429C5.22045 3.79749 5.43288 3.19857 5.68072 2.58033C5.75153 2.54169 5.80464 2.50306 5.87545 2.46442C6.33572 2.50306 6.8137 2.52238 7.27397 2.56102C7.32708 2.65762 7.38019 2.65762 7.451 2.56102C13.1159 2.56102 18.7808 2.56102 24.4457 2.56102C24.4988 2.65762 24.5519 2.65762 24.6227 2.56102C24.7998 2.52238 24.9768 2.48374 25.1538 2.46442C25.3308 2.48374 25.5079 2.48373 25.6672 2.50305C25.738 2.54169 25.7911 2.58033 25.8619 2.61897C25.915 2.61897 25.9681 2.61898 26.0213 2.63829C26.0921 2.59966 26.1452 2.56101 26.216 2.52237C26.393 2.54169 26.57 2.58033 26.7294 2.59965C26.7294 3.08265 26.7294 3.56565 26.7294 4.06797V4.14525C26.6055 4.10661 26.4992 4.08729 26.3753 4.04865C26.2691 3.72021 26.1806 3.37245 26.0744 3.04402C25.9327 3.54633 25.6495 3.68157 25.26 3.81681C25.0122 3.87477 24.6581 3.62361 24.4457 3.99069Z" fill="#FCCC04"/>
<path d="M16.0369 28.8941C19.7899 28.8941 23.5252 28.9134 27.2782 28.9134C27.4021 29.0487 27.526 29.01 27.6677 28.9714C27.7031 28.8941 27.7562 28.8362 27.7916 28.7589C27.7562 28.6816 27.7385 28.6043 27.7031 28.527C27.7031 28.3532 27.7031 28.1793 27.7208 28.0054C27.7385 27.5997 27.7916 27.1746 27.7916 26.7689C27.8093 23.0015 27.827 19.2535 27.8447 15.4861C27.8978 15.4861 27.9509 15.4667 27.9863 15.4281C28.1102 15.4281 28.2341 15.4281 28.3404 15.4474C28.3935 15.4667 28.4466 15.4861 28.5174 15.5054C28.659 15.9691 28.6944 16.4327 28.6944 16.9157C28.6767 20.2967 28.6767 23.697 28.6944 27.078C28.6944 27.4258 28.5174 27.8895 29.0485 28.0247C29.1547 28.6816 28.8537 29.2998 28.8714 29.9567C28.7298 29.9954 28.5351 30.1306 28.4643 30.0726C27.349 29.068 26.039 29.4544 24.7998 29.3771C21.7903 29.3771 18.7808 29.3771 15.7891 29.3771C15.7891 29.3192 15.7891 29.2612 15.7891 29.2032C15.8599 29.0873 15.9484 28.9907 16.0369 28.8941Z" fill="#F4F8E9"/>
<path d="M25.1538 12.762C25.9858 12.762 26.8002 12.7427 27.6322 12.7427C27.8623 12.7427 28.1102 12.7427 28.3403 12.7427C28.5705 12.7427 28.8183 12.7427 29.0484 12.7427C29.1724 12.7427 29.2786 12.7427 29.4025 12.7427C29.7565 12.8586 30.1106 12.5495 30.4647 12.762C30.2168 13.4575 29.7566 13.1098 29.3671 13.0325C29.013 12.9359 28.6767 12.9552 28.6236 13.3996C28.5528 13.8826 28.9599 13.728 29.1724 13.728C29.8982 13.6894 29.7388 14.269 29.7565 14.7133C29.7388 14.7713 29.7211 14.8099 29.7211 14.8679C29.6503 14.8679 29.6149 14.9065 29.5795 14.9645C29.1724 15.0804 28.8006 15.3702 28.358 15.3315C28.3757 15.2349 28.4111 15.1577 28.4288 15.0611C28.5351 14.7326 28.659 14.4042 28.3226 14.1144C27.9332 13.8053 27.8092 14.2496 27.6322 14.4235C27.4021 14.6167 27.2073 14.7133 26.9241 14.6167C26.5169 14.4815 26.6054 14.8292 26.5877 15.0804L26.5523 15.119C25.9858 15.0997 25.6672 14.636 25.3485 14.2303C25.0122 13.8053 24.7821 13.6507 24.428 14.211C23.8969 15.0224 23.0472 15.2929 22.2328 15.6407C21.6132 15.9111 21.153 15.2929 20.5865 15.2543C20.4626 15.0611 20.1616 15.0611 20.1616 14.7519C20.9228 14.9838 21.6664 15.177 22.463 15.0997C22.817 15.0611 23.118 15.0418 23.2596 14.5008C22.817 14.5201 22.4276 14.5394 22.0735 14.5781C21.8965 14.5974 21.7195 14.694 21.6664 14.4235C21.6133 14.1724 21.7195 13.9405 21.9673 13.9598C22.5692 13.9985 23.1888 13.7473 23.7553 14.1337C23.7376 14.153 23.7376 14.1917 23.7199 14.211C23.7376 14.1917 23.7553 14.153 23.7553 14.1337C23.8969 14.0951 24.0739 14.0951 24.1448 14.0178C24.2333 13.9019 24.127 13.8053 24.0031 13.7666C23.8438 13.728 23.6137 13.728 23.6668 13.4575C23.7022 13.245 23.9323 13.245 24.0739 13.1677C24.4103 12.9552 24.906 13.2643 25.1538 12.762Z" fill="#E84106"/>
<path d="M7.29171 2.56101C6.83144 2.52237 6.35347 2.50305 5.89319 2.46441C5.89319 2.40645 5.89319 2.36781 5.87549 2.30985C6.24725 2.03937 6.77833 2.17461 7.11469 1.74957C8.03523 2.27121 9.04429 2.13597 10.0179 2.13597C14.7623 2.13597 19.489 2.13597 24.2333 2.15529C24.552 2.15529 24.9591 1.94277 25.1716 2.44509C24.9945 2.48373 24.8175 2.52237 24.6405 2.54169C24.5874 2.54169 24.5343 2.54169 24.4635 2.54169C18.7985 2.54169 13.1336 2.54169 7.46874 2.54169C7.39793 2.56101 7.34482 2.56101 7.29171 2.56101Z" fill="#F4F3FC"/>
<path d="M1.98099 12.762C3.22019 12.762 4.45938 12.762 5.69858 12.762C5.50385 13.3995 5.04358 13.1677 4.68952 13.0518C4.12303 12.8586 3.78667 13.0904 3.37951 13.728C4.06992 13.728 4.61871 13.6893 5.14979 13.7473C5.48615 13.7859 6.28277 13.3995 5.76939 14.4428C5.64547 14.694 6.03493 14.6746 6.21196 14.694C5.66317 15.2542 4.95506 15.3895 4.22925 15.4861C4.12303 15.4668 4.01681 15.4281 3.91059 15.4088C3.76897 15.119 4.60101 14.6167 3.83978 14.578C3.55654 14.578 2.97234 14.636 2.6714 15.0224C2.26423 14.8485 2.12261 14.3462 1.76855 14.1144C1.85707 13.5154 2.40586 13.3995 2.77761 13.1097C2.52978 12.8392 2.15802 13.0904 1.98099 12.762Z" fill="#E84106"/>
<path d="M3.75116 28.0247C3.89278 24.3733 3.46791 20.7218 3.57413 17.051C3.57413 16.7998 3.57413 16.5293 3.59184 16.2782C3.59184 16.1043 3.64494 15.9497 3.82197 15.9304C4.06981 15.9111 4.08751 16.1236 4.10522 16.3168C4.12292 16.4521 4.10522 16.568 4.10522 16.7032C4.10522 20.5865 4.10522 24.4892 4.10522 28.3725C4.10522 28.6623 4.17603 28.9521 3.92819 29.1839C3.85738 28.7975 3.68035 28.4304 3.75116 28.0247Z" fill="#F4F3FC"/>
<path d="M29.0487 28.0247C28.5176 27.8895 28.6946 27.4258 28.6946 27.078C28.6769 23.697 28.6769 20.2967 28.6946 16.9157C28.6946 16.4327 28.6592 15.9691 28.5176 15.5054C28.6946 15.4861 28.8716 15.4667 29.0487 15.4667C29.0487 19.6592 29.0487 23.8323 29.0487 28.0247Z" fill="#F4F3FC"/>
<path d="M15.7712 29.3578C18.7807 29.3578 21.7902 29.3578 24.782 29.3578C24.658 29.9374 24.2332 29.7249 23.9145 29.7249C21.6132 29.7442 19.3295 29.7442 17.0281 29.7249C16.4793 29.7249 15.966 29.7055 15.7358 30.4397C15.6296 30.8068 15.2932 30.6715 15.0454 30.7102C15.0985 30.459 15.1693 30.1885 15.2224 29.9374C15.4172 29.7442 15.5942 29.551 15.7712 29.3578Z" fill="#F4F3FC"/>
<path d="M29.5619 9.09119C29.8451 9.26507 30.0753 9.55487 30.4647 9.47759C30.4647 9.80603 30.4647 10.1924 30.8542 10.1924C31.3145 10.1924 31.1197 9.74807 31.1729 9.47759C31.4384 9.51623 31.757 9.1105 31.9518 9.53554C32.0934 9.84466 31.8987 10.1924 31.6862 10.2697C30.9427 10.5981 31.1374 11.2357 31.2083 11.796C31.2614 12.1824 31.3322 12.5495 31.3322 12.9359C31.2083 12.9938 31.0843 13.0711 30.9604 13.1291C30.9073 11.7767 30.4116 10.6368 29.5088 9.70943C29.5442 9.51623 29.5442 9.30371 29.5619 9.09119Z" fill="#F4F3FC"/>
<path d="M3.57406 10.2504C3.68028 9.65146 3.25541 9.34233 2.97217 8.95593C3.22001 8.3377 3.39704 7.70014 3.76879 7.15918C3.89271 7.2751 3.89271 7.42966 3.8219 7.58422C3.75109 7.79674 3.68028 8.0479 3.87501 8.20246C4.12285 8.39566 4.19366 8.10586 4.31758 7.9513C4.60083 7.62286 4.72475 7.91266 4.76015 8.18314C4.90177 8.95593 4.29988 9.96057 3.57406 10.2504Z" fill="#F2681A"/>
<path d="M0.387785 12.5688C0.370083 11.5641 0.759545 10.7913 1.44995 10.1538C1.57387 10.0378 1.7155 9.82532 1.89253 10.0185C2.03415 10.1731 2.01645 10.4242 1.89253 10.5402C0.936573 11.5641 0.936572 12.7813 1.21982 14.0757C1.25522 14.1916 1.23752 14.3462 1.0959 14.3848C0.91887 14.4235 0.830355 14.2689 0.777247 14.1337C0.653327 13.8246 0.848059 13.4188 0.564814 13.1484C0.564814 13.0131 0.564814 12.8972 0.564814 12.762C0.582516 12.7426 0.635625 12.7233 0.617923 12.704C0.60022 12.646 0.582515 12.6074 0.54711 12.5688C0.511704 12.5688 0.440894 12.5688 0.387785 12.5688Z" fill="#F4F3FC"/>
<path d="M29.5264 9.7287C30.4292 10.6561 30.9249 11.7959 30.978 13.1483C31.1727 14.5007 31.0488 14.6746 29.7211 14.8485C29.7211 14.7905 29.7388 14.7326 29.7565 14.6939C30.5 14.1723 30.8895 13.5154 30.4646 12.5494C30.4646 11.738 29.8096 11.2163 29.7211 10.4435C29.7388 10.3083 29.6503 10.289 29.5795 10.2503C29.5795 10.1924 29.5618 10.1344 29.5441 10.0765C29.5264 9.96054 29.5264 9.84462 29.5264 9.7287Z" fill="#F8E6BC"/>
<path d="M4.99023 1.76889C5.02564 1.55637 5.13186 1.32453 5.09645 1.11201C5.06105 0.822209 4.90172 0.532409 5.20267 0.33921C5.50362 0.14601 5.59213 0.474445 5.75146 0.648324C5.91078 0.802884 6.08781 0.822206 6.17632 0.590367C6.30024 0.281247 6.40646 -0.0471931 6.77822 0.0880467C7.18539 0.223286 7.07917 0.648328 7.09687 0.996087C7.09687 1.13133 7.09687 1.24725 7.09687 1.38249C6.35335 1.15065 5.73375 1.92345 4.99023 1.76889Z" fill="#F4F3FC"/>
<path d="M6.24709 20.7797C6.24709 23.5232 6.24709 26.2473 6.22938 28.9907C6.21168 29.0487 6.19398 29.0873 6.17627 29.1453C5.80451 29.1453 5.41505 29.1066 5.04329 29.1646C4.33518 29.2612 4.15815 28.8941 4.28207 28.2179C4.52991 29.0293 5.14951 28.8555 5.66289 28.7782C6.30019 28.6816 6.03465 28.0827 6.03465 27.6963C6.05235 25.687 6.03465 23.6777 6.05235 21.6491C6.07006 21.3593 5.91073 20.9922 6.24709 20.7797Z" fill="#F6D259"/>
<path d="M12.1068 0.918847C10.6729 0.918847 9.22128 0.918847 7.78735 0.918847C7.78735 0.860887 7.78735 0.802927 7.78735 0.725647C9.23898 0.725647 10.6729 0.725647 12.1245 0.725647C12.1068 0.802927 12.1068 0.860887 12.1068 0.918847Z" fill="#F4F3FC"/>
<path d="M28.8714 29.9374C28.8537 29.2805 29.1546 28.6623 29.0484 28.0054C30.1106 27.9281 29.7388 28.7975 29.7388 29.3191C29.7211 29.8601 29.4733 30.2658 28.8714 29.9374Z" fill="#F4F3FC"/>
<path d="M4.9904 1.76888C5.73391 1.92344 6.35351 1.15064 7.11473 1.38248C7.11473 1.51772 7.11473 1.63364 7.11473 1.76888C6.79608 2.19392 6.265 2.05868 5.87554 2.32916C5.6277 2.32916 5.39756 2.34848 5.14972 2.34848C4.99039 2.23256 4.72485 2.21324 4.72485 1.94276C4.72485 1.7882 4.86648 1.76888 4.9904 1.76888Z" fill="#F4F8E9"/>
<path d="M2.15795 5.42031C2.22877 5.18847 1.99863 4.72479 2.4589 4.72479C2.84836 4.72479 2.84836 5.13051 2.84836 5.43963C2.84836 5.49759 2.86607 5.57487 2.84836 5.63283C2.65363 6.03855 3.34404 6.71475 2.68904 6.81135C2.4235 6.84999 2.10485 6.03855 2.15795 5.42031Z" fill="#F4F8E9"/>
<path d="M15.2403 29.9567C15.1872 30.2079 15.1164 30.4784 15.0633 30.7295C14.9925 30.7875 14.9394 30.8648 14.8686 30.9227C14.7978 30.9613 14.7269 30.9807 14.6561 31C14.7623 30.0147 13.1868 30.9613 13.4877 29.7635C13.5409 29.7056 13.6117 29.6283 13.6648 29.5703C14.1605 29.8022 14.6561 30.0726 15.2403 29.9567Z" fill="#F4F8E9"/>
<path d="M29.5266 9.72869C29.5266 9.84461 29.5266 9.96053 29.5266 10.0765C29.5089 10.0958 29.4734 10.1344 29.4911 10.1344C29.5089 10.1731 29.5443 10.2117 29.562 10.2503C29.6505 10.289 29.739 10.3083 29.7036 10.4435C29.1194 10.8299 28.9247 10.2503 28.606 9.94121C28.1457 9.49685 28.6945 9.40025 28.783 9.14909C28.8538 8.95589 28.8538 8.72406 28.8715 8.51154C28.9247 8.51154 28.9601 8.53086 28.9955 8.55018C29.2787 8.87862 28.9955 9.51617 29.5266 9.72869Z" fill="#F2681A"/>
<path d="M1.981 12.7619C2.15803 13.0904 2.54749 12.8392 2.81303 13.1483C2.44128 13.4381 1.87479 13.5347 1.80397 14.153C1.43221 13.6313 1.11356 13.0904 1.50303 12.4142C1.62695 12.5494 1.71546 12.7813 1.981 12.7619Z" fill="#F23C15"/>
<path d="M3.75113 28.0247C3.69803 28.4304 3.87505 28.7975 3.92816 29.1839C3.87505 29.4158 4.21141 29.7249 3.92816 29.8794C3.5564 30.0726 3.521 29.5896 3.43248 29.3771C3.18464 28.8555 2.83059 28.2372 3.75113 28.0247Z" fill="#F4F8E9"/>
<path d="M3.64505 5.88407C3.53883 5.09195 3.46802 4.57031 3.946 4.1646C4.05221 4.068 4.15843 3.91344 4.31776 3.99072C4.51249 4.08732 4.49478 4.33848 4.42397 4.49304C4.21154 4.89876 3.9814 5.28515 3.64505 5.88407Z" fill="#F4F3FC"/>
<path d="M2.68896 15.0417C2.98991 14.636 3.57411 14.578 3.85735 14.5973C4.60087 14.6167 3.78654 15.1383 3.92816 15.4281C3.48559 15.3894 3.07843 15.2735 2.68896 15.0417Z" fill="#F23C15"/>
<path d="M5.69846 2.58035C5.45062 3.19859 5.23818 3.79751 6.26495 3.60431C6.30035 3.60431 6.35346 3.81683 6.40657 3.91343C6.01711 3.91343 5.62765 3.91343 5.22048 3.91343C5.16737 3.77819 5.13197 3.62363 5.07886 3.48839C5.07886 3.29519 5.09656 3.12131 5.09656 2.92811C5.13197 2.81219 5.14967 2.69627 5.18508 2.56104C5.3621 2.56104 5.52143 2.56103 5.69846 2.58035Z" fill="#FCC01D"/>
<path d="M13.6471 29.5703C13.5939 29.6282 13.5231 29.7055 13.47 29.7635C13.0452 29.7248 13.1337 29.3771 13.116 29.0873C13.293 29.0873 13.4877 29.0873 13.6648 29.0873C14.0365 29.3771 14.5322 28.9714 14.8862 29.3771C14.4791 29.435 14.0188 29.2032 13.6471 29.5703Z" fill="#FCF8F6"/>
<path d="M29.5266 9.72868C28.9955 9.51616 29.2787 8.89793 29.0132 8.55017C29.0663 8.56949 29.1371 8.56949 29.1725 8.58881C29.4558 8.74337 29.3849 8.02853 29.6505 8.29901C29.8629 8.53085 29.6505 8.82065 29.562 9.09113C29.5443 9.30365 29.5443 9.51616 29.5266 9.72868Z" fill="#F8E6BC"/>
<path d="M29.0484 15.4668C28.8714 15.4861 28.6944 15.5054 28.5174 15.5054C28.4643 15.4861 28.4111 15.4668 28.3403 15.4474C28.358 15.4088 28.358 15.3509 28.358 15.3122C28.8006 15.3509 29.1724 15.061 29.5795 14.9451C29.5795 15.2349 29.8805 15.2929 29.9867 15.5247C29.6149 15.7952 29.3494 15.4475 29.0484 15.4668Z" fill="#F8E6BC"/>
<path d="M0.564641 12.7619C0.564641 12.8972 0.564641 13.0131 0.564641 13.1483C0.529235 13.3995 0.352208 13.6506 0.17518 13.4381C-0.0549571 13.1483 -0.125769 12.7233 0.387613 12.5687C0.440721 12.5687 0.511533 12.5687 0.564641 12.5687C0.564641 12.646 0.564641 12.704 0.564641 12.7619Z" fill="#F4F8E9"/>
<path d="M31.173 9.47754C31.1198 9.74802 31.3146 10.2117 30.8543 10.1924C30.4648 10.1924 30.4648 9.80598 30.4648 9.47754C30.695 9.47754 30.9251 9.47754 31.173 9.47754Z" fill="#F4F8E9"/>
<path d="M26.2339 1.74959C26.2693 1.38251 26.5171 1.40183 26.7473 1.38251C26.9066 1.53707 26.9066 1.6723 26.7473 1.82686C26.5525 2.00074 26.3932 1.82687 26.2339 1.74959Z" fill="#F8E6BC"/>
<path d="M6.19409 29.1259C6.21179 29.068 6.2295 29.0293 6.2472 28.9714C6.67207 28.7975 7.07923 28.8748 7.4864 29.068C7.5041 29.1066 7.5218 29.1453 7.5218 29.1839L7.4864 29.2032C7.04383 29.1839 6.61896 29.1646 6.19409 29.1259Z" fill="#F8E6BC"/>
<path d="M26.7471 4.02935C26.7471 3.54635 26.7471 3.06335 26.7471 2.56104C27.2605 2.94743 26.8002 3.48839 26.9241 3.93275C26.871 3.95207 26.8002 3.99071 26.7471 4.02935Z" fill="#FCC01D"/>
<path d="M27.5084 5.36242C27.4376 5.38174 27.349 5.40106 27.2782 5.42038C27.1189 5.13058 27.1012 4.80214 27.0835 4.4737L27.1189 4.43506C27.3313 4.70554 27.4376 5.03398 27.5084 5.36242Z" fill="#F2681A"/>
<path d="M28.5528 7.70011C28.004 7.68079 28.181 7.25575 28.181 6.92731C28.3935 7.13983 28.4997 7.41031 28.5528 7.70011Z" fill="#F2681A"/>
<path d="M27.9686 6.38638C27.5615 6.3091 27.6323 5.99998 27.65 5.69086C27.8447 5.88406 27.9509 6.1159 27.9686 6.38638Z" fill="#F2681A"/>
<path d="M5.07889 3.46906C5.132 3.60429 5.16741 3.75886 5.22052 3.8941C5.0966 3.95206 4.97268 4.02934 4.83105 4.0873C4.93727 3.91342 4.77795 3.58497 5.07889 3.46906Z" fill="#F8E6BC"/>
<path d="M26.7471 4.02928C26.8002 3.99064 26.871 3.97132 26.9241 3.93268C26.9949 4.10656 27.048 4.28044 27.1188 4.45432L27.0834 4.49296C26.8887 4.45432 26.7648 4.3384 26.7471 4.10656C26.7471 4.08724 26.7471 4.02928 26.7471 4.02928Z" fill="#F2681A"/>
<path d="M5.69845 2.58032C5.52142 2.58032 5.36209 2.561 5.18507 2.561C5.16736 2.48372 5.16736 2.40644 5.14966 2.34848C5.3975 2.34848 5.62764 2.32916 5.87548 2.32916C5.89318 2.38712 5.89318 2.42576 5.89318 2.48372C5.82237 2.50304 5.75156 2.54168 5.69845 2.58032Z" fill="#F8E6BC"/>
<path d="M25.6849 2.30981C25.8619 2.30981 26.039 2.30981 26.216 2.30981C26.2337 2.36777 26.2337 2.42573 26.2337 2.48369C26.1629 2.52233 26.1098 2.56097 26.039 2.59961C25.9859 2.56097 25.9327 2.56097 25.8796 2.58029C25.8088 2.54165 25.7557 2.50302 25.6849 2.46438C25.6672 2.42574 25.6672 2.36777 25.6849 2.30981Z" fill="#F8E6BC"/>
<path d="M5.18505 2.56104C5.14964 2.67695 5.13194 2.79287 5.09654 2.92811C4.97262 2.75423 4.97262 2.619 5.18505 2.56104Z" fill="#F8E6BC"/>
<path d="M28.8891 8.51162C28.712 8.43434 28.6943 8.27978 28.6943 8.1059C28.7651 8.24114 28.836 8.37638 28.8891 8.51162Z" fill="#F2681A"/>
<path d="M28.1988 6.9659C28.0041 6.88862 27.9864 6.69543 28.0041 6.52155C28.0749 6.65679 28.128 6.81134 28.1988 6.9659Z" fill="#F2681A"/>
<path d="M27.6323 5.63288C27.5792 5.5556 27.5261 5.47831 27.4907 5.38171C27.6146 5.42035 27.6323 5.49764 27.6323 5.63288Z" fill="#F2681A"/>
<path d="M2.97232 9.0332C2.99002 9.16844 2.91921 9.24572 2.81299 9.28436C2.8661 9.18776 2.91921 9.11048 2.97232 9.0332Z" fill="#F2681A"/>
<path d="M31.3499 12.9551C31.3676 12.9745 31.403 12.9745 31.4207 12.9938C31.3853 12.9938 31.3676 12.9745 31.3499 12.9551Z" fill="#F4F3FC"/>
<path d="M7.50416 29.2032C7.52186 29.2226 7.53956 29.2419 7.53956 29.2612C7.52186 29.2612 7.48645 29.2419 7.46875 29.2419C7.46875 29.2226 7.50416 29.2032 7.50416 29.2032Z" fill="#FCF8F6"/>
<path d="M11.1863 15.2929C9.38064 15.9498 7.76969 15.1577 7.2209 13.303C7.11468 13.4575 7.02617 13.5928 6.91995 13.728C6.86684 13.3996 6.79603 13.0904 6.74292 12.762V12.7427C6.86684 12.762 6.99076 12.762 7.09698 12.7813C8.03523 13.5155 9.18591 12.9745 10.2127 13.3416C10.4959 13.4382 11.1686 13.2257 11.7351 13.1677C11.3988 13.5734 11.0801 13.7473 10.6375 13.7666C10.2481 13.786 10.4428 13.9985 10.6375 14.1337C10.7084 14.211 10.7438 14.3656 10.8677 14.211C10.7969 14.1917 10.7261 14.1724 10.6552 14.1337C11.2571 13.5928 11.7351 14.211 12.2839 14.3462C12.1954 14.8872 11.859 15.119 11.3811 15.119C11.328 15.0031 11.2925 14.8872 11.2394 14.7906C10.8323 14.211 9.68159 15.0418 9.64618 13.7666C9.64618 13.7666 9.53997 13.7666 9.48686 13.7666C8.95577 13.6507 8.76104 14.153 8.70793 14.4622C8.63712 14.8486 8.99118 15.0997 9.39834 15.119C10.0711 15.119 10.7438 15.119 11.3988 15.1384C11.3102 15.1577 11.2394 15.235 11.1863 15.2929Z" fill="#E84106"/>
<path d="M11.3632 15.0997C11.8412 15.0804 12.1775 14.8678 12.266 14.3269C12.4254 14.1337 12.5847 13.9405 12.744 13.7473C13.0096 13.9984 13.3459 14.0371 13.6114 14.3462C15.3109 16.3941 18.1257 15.7759 19.0108 13.187C19.0462 13.2063 19.0639 13.2256 19.0993 13.2256C19.2055 13.9405 19.4888 14.5008 20.1615 14.7326L20.1438 14.7519C20.1438 15.061 20.4624 15.061 20.5687 15.2542C20.1261 15.2542 19.6481 15.4281 19.3472 14.8292C19.2055 14.5587 18.8692 14.7133 18.639 14.9258C17.6477 15.8338 16.4085 16.0077 15.2578 15.7759C14.6205 15.66 13.7531 15.6986 13.2751 14.8678C13.1158 14.5974 12.744 14.2303 12.5493 15.0804C12.3545 15.9111 11.6641 15.4474 11.1685 15.3122C11.2393 15.2349 11.3101 15.1576 11.3632 15.0997Z" fill="#FCC01D"/>
<path d="M26.0212 19.7171C26.0212 19.8331 26.0212 19.949 26.0212 20.0649C25.738 19.9876 25.4547 20.0456 25.1715 20.1229C24.9944 20.1035 24.7997 20.0842 24.6227 20.0456C24.4988 19.9103 24.3571 19.7944 24.2332 19.6592C24.0739 18.8864 23.9323 18.1329 23.7729 17.3601C24.605 17.2055 25.1361 17.5533 25.4016 18.4613C25.5255 18.925 25.8088 19.3114 26.0212 19.7171Z" fill="#F2681A"/>
<path d="M23.7731 17.3794C23.9325 18.1522 24.0741 18.9057 24.2334 19.6785C23.6669 19.6785 23.1004 19.6978 22.534 19.6978C22.4985 18.9444 22.4631 18.1909 22.4277 17.4374C22.4631 17.3601 22.5163 17.2828 22.5517 17.2249C22.6579 17.2249 22.7641 17.2056 22.8703 17.2056C22.9234 17.2056 22.9942 17.2056 23.0473 17.2056C23.2775 17.2249 23.4899 17.2249 23.72 17.2442C23.7023 17.3022 23.72 17.3601 23.7731 17.3794Z" fill="#F4F8E9"/>
<path d="M25.3308 24.8949C25.5255 24.9529 25.8619 24.8563 25.8265 25.262C25.7911 25.5711 25.5255 25.5132 25.3308 25.5132C22.9586 25.5132 20.5865 25.5325 18.2143 25.5132C17.9133 25.5132 17.4708 25.5711 17.7363 24.9529C17.8071 24.9336 17.8602 24.9142 17.931 24.8949L17.9133 24.9142C18.1081 25.1847 18.3913 25.1074 18.6569 25.1074C20.5157 25.1074 22.3744 25.1074 24.2332 25.1074C24.4988 25.1074 24.7643 25.1847 24.9768 24.9336C25.0476 24.9142 25.1007 24.8949 25.1715 24.8756L25.26 24.8949H25.3308Z" fill="#E84106"/>
<path d="M17.2053 19.9103C17.2053 19.7944 17.2053 19.6592 17.2053 19.5432C17.3469 19.4466 17.3824 19.3114 17.3824 19.1375C17.5417 18.9057 17.7541 18.7125 17.8249 18.4613C18.0728 17.6113 18.5684 17.2442 19.3828 17.3987C19.3828 17.534 19.3828 17.6692 19.3828 17.8045C19.2766 18.2488 19.0818 18.6545 19.1349 19.1375C19.0818 19.3307 19.0287 19.5239 18.9933 19.7171C18.4622 19.833 17.878 19.5239 17.3824 19.9296C17.3115 19.9103 17.2584 19.9103 17.2053 19.9103Z" fill="#F2681A"/>
<path d="M6.76051 12.7619C6.81362 13.0904 6.88443 13.3995 6.93754 13.7279C6.86673 13.8632 6.81362 13.9791 6.74281 14.1143C6.6897 14.1723 6.63659 14.2496 6.58348 14.3075C6.35334 14.3075 6.22942 14.4428 6.22942 14.6939C6.0524 14.6553 5.66293 14.6939 5.78685 14.4428C6.28253 13.3995 5.48591 13.7859 5.16725 13.7472C4.63617 13.6893 4.08738 13.7279 3.39697 13.7279C3.78643 13.0904 4.12279 12.8585 4.70698 13.0517C5.06104 13.1676 5.52131 13.3995 5.71604 12.7619C6.0524 12.704 6.40645 12.4528 6.76051 12.7619Z" fill="#F23C15"/>
<path d="M27.8447 15.5054C27.827 19.2728 27.8093 23.0209 27.7916 26.7883C27.7916 27.194 27.7562 27.619 27.7208 28.0247C27.526 27.6963 27.6146 27.3485 27.6146 27.0008C27.6146 23.1561 27.6146 19.3308 27.6146 15.4861C27.6854 15.4861 27.7739 15.5054 27.8447 15.5054Z" fill="#F6D259"/>
<path d="M14.5146 18.7511C13.9481 18.4806 13.6471 17.9204 13.2754 17.4374C13.4524 17.2828 13.6294 17.1089 13.8065 16.9544C14.1074 16.7032 14.373 16.935 14.6208 17.0896C14.904 17.2828 14.8863 17.5533 14.7624 17.8431C14.6385 18.1329 14.5146 18.4227 14.5146 18.7511Z" fill="#FCC01D"/>
<path d="M16.0369 28.8941C15.9484 28.9907 15.8599 29.0873 15.7713 29.1839C15.5943 29.1839 15.4173 29.1839 15.2403 29.1839C15.1872 29.126 15.134 29.068 15.0809 29.0101C15.0809 26.3246 15.0809 23.6584 15.0632 20.973C15.3465 21.2241 15.2049 21.5719 15.2226 21.8617C15.2403 23.8323 15.258 25.8223 15.2226 27.7929C15.2049 28.4884 15.3819 28.8555 16.0369 28.8941Z" fill="#F6D259"/>
<path d="M23.7731 17.3794C23.72 17.3407 23.7023 17.3021 23.72 17.2441C24.676 16.7611 25.331 17.0123 25.6673 17.9783C25.8621 18.5386 26.1807 19.0602 26.0214 19.7171C25.809 19.3114 25.5434 18.925 25.4018 18.4806C25.1185 17.5919 24.6052 17.2441 23.7731 17.3794Z" fill="#FCC01D"/>
<path d="M7.64582 17.7852C7.23865 18.4807 6.81379 19.1955 6.40662 19.8911C6.3004 19.7945 6.19419 19.6592 6.08797 19.5819C5.91094 19.4467 5.50378 19.5819 5.57459 19.1183C5.59229 19.0217 5.6808 18.8864 5.76932 18.8285C6.17648 18.558 6.15878 19.1569 6.45973 19.2342C6.72527 18.6353 6.70757 17.7272 7.64582 17.7852Z" fill="#FCC01D"/>
<path d="M19.3829 17.3794C18.5685 17.2249 18.0729 17.5919 17.825 18.442C17.7542 18.6932 17.5241 18.9057 17.3825 19.1182C17.2231 17.2055 18.3207 16.7998 20.2149 17.1476C19.9317 17.2442 19.6484 17.3215 19.3829 17.3794Z" fill="#FCC01D"/>
<path d="M17.2053 19.9103C17.2584 19.9103 17.3115 19.9103 17.3646 19.9297C17.5063 20.2774 17.7718 20.3354 18.0727 20.3547C17.7364 21.8617 18.0019 23.3879 17.9311 24.9142C17.8603 24.9335 17.8072 24.9529 17.7364 24.9722C17.7364 24.0835 17.7364 23.1754 17.7364 22.2867C17.7364 21.5332 17.8426 20.7411 17.1168 20.2388C17.0106 20.1615 17.0991 19.9876 17.2053 19.9103Z" fill="#FCC01D"/>
<path d="M12.5849 16.993C11.5758 16.51 10.5136 16.51 9.43377 16.6646C9.41607 16.4714 9.45147 16.2589 9.6285 16.1623C10.0711 15.9304 12.1954 16.5487 12.5849 16.993Z" fill="#FCC01D"/>
<path d="M25.3308 24.8949H25.2423L25.1538 24.8756C25.1538 23.2914 25.1538 21.7071 25.1715 20.1229C25.4548 20.0263 25.738 19.9876 26.0212 20.0649C25.3131 20.5479 25.2777 21.2821 25.3131 22.0935C25.3662 23.0402 25.3308 23.9675 25.3308 24.8949Z" fill="#FCC01D"/>
<path d="M22.534 17.2249C22.4986 17.3021 22.4454 17.3794 22.41 17.4374C21.9321 17.7272 21.4187 17.534 20.923 17.5919C20.8699 17.5726 20.8168 17.5726 20.746 17.5726C20.7283 17.5147 20.7106 17.4567 20.6929 17.4181C20.7106 17.3408 20.7106 17.2828 20.7283 17.2055C21.3302 17.0123 21.9321 17.0317 22.534 17.2249Z" fill="#FCC01D"/>
<path d="M27.8446 15.5054C27.7737 15.5054 27.6852 15.4861 27.6144 15.4861C27.2427 15.4088 26.8532 15.3895 26.5522 15.119L26.5877 15.0804C27.0479 15.2349 27.6852 14.636 27.9862 15.4668C27.9331 15.4861 27.8977 15.5054 27.8446 15.5054Z" fill="#E84106"/>
<path d="M20.7104 17.2055C20.6927 17.2828 20.6927 17.3408 20.675 17.4181C20.1793 17.3021 19.7722 17.5919 19.365 17.8045C19.365 17.6692 19.365 17.534 19.365 17.3987C19.6482 17.3215 19.9138 17.2635 20.197 17.1862C20.374 17.1862 20.5511 17.2055 20.7104 17.2055Z" fill="#F8E6BC"/>
<path d="M9.43373 16.6452C9.13278 16.8191 8.81413 16.993 8.51318 17.1669C8.53089 16.3941 9.04427 16.6645 9.43373 16.6452Z" fill="#FCC01D"/>
<path d="M12.762 16.4134C12.6558 16.3941 12.5142 16.3941 12.5142 16.2396C12.5142 16.085 12.6558 16.0657 12.762 16.0657C12.8682 16.0657 13.0098 16.085 13.0098 16.2396C13.0098 16.4134 12.8859 16.4134 12.762 16.4134Z" fill="#FCC01D"/>
<path d="M27.7208 28.5463C27.7562 28.6236 27.7739 28.7009 27.8093 28.7782C27.7739 28.8554 27.7208 28.9134 27.6854 28.9907C27.5437 29.0293 27.4021 29.0486 27.2959 28.9327C27.3136 28.6429 27.5083 28.6043 27.7208 28.5463Z" fill="#F6D259"/>
<path d="M8.19454 17.418C8.08832 17.6692 7.89359 17.8044 7.64575 17.7851C7.66345 17.3794 7.929 17.3987 8.19454 17.418Z" fill="#FCC01D"/>
<path d="M13.8241 16.0463C13.8064 16.1622 13.8064 16.2975 13.6648 16.3361C13.6294 16.3361 13.5586 16.2588 13.5763 16.2395C13.594 16.0656 13.7179 16.0656 13.8241 16.0463Z" fill="#FCC01D"/>
<path d="M25.7912 21.7071C25.7381 21.7264 25.685 21.7844 25.6495 21.7651C25.6141 21.7457 25.6141 21.6685 25.5964 21.6105C25.6495 21.5912 25.7027 21.5332 25.7381 21.5525C25.7558 21.5719 25.7735 21.6491 25.7912 21.7071Z" fill="#FCC01D"/>
<path d="M13.8242 16.0463C13.8419 15.9304 13.8419 15.7952 13.9835 15.7565C14.019 15.7565 14.0898 15.8338 14.0721 15.8531C14.0721 16.027 13.9481 16.027 13.8242 16.0463Z" fill="#FCC01D"/>
<path d="M6.22949 14.694C6.22949 14.4428 6.35341 14.3076 6.58355 14.3076C6.53044 14.5201 6.40652 14.636 6.22949 14.694Z" fill="#E84106"/>
<path d="M12.939 17.0123C12.9567 16.935 12.9744 16.8577 13.0098 16.7805C13.1691 16.9157 13.0098 16.935 12.939 17.0123Z" fill="#FCC01D"/>
<path d="M17.3645 19.1376C17.3645 19.2921 17.3291 19.4467 17.1875 19.5433C17.1875 19.3694 17.2229 19.2149 17.3645 19.1376Z" fill="#FCC01D"/>
<path d="M6.5835 14.3075C6.6366 14.2496 6.68971 14.1723 6.74282 14.1143C6.68971 14.1916 6.6366 14.2496 6.5835 14.3075Z" fill="#E84106"/>
<path d="M23.0296 17.2055C22.9765 17.2055 22.9056 17.2055 22.8525 17.2055C22.9056 17.0896 22.9765 17.0896 23.0296 17.2055Z" fill="#FCC01D"/>
<path d="M12.939 17.1862C12.8682 17.1282 12.7974 17.0896 12.7266 17.0317C12.7974 17.0317 12.8682 17.0123 12.939 17.0123C12.939 17.0703 12.939 17.1282 12.939 17.1862Z" fill="#FCC01D"/>
<path d="M15.0808 28.9907C15.1339 29.0487 15.187 29.1066 15.2401 29.1646C15.1162 29.2226 15.01 29.2998 14.886 29.3578C14.5497 28.9521 14.0363 29.3578 13.6646 29.068C14.1425 29.0487 14.6028 29.0294 15.0808 28.9907Z" fill="#F8E6BC"/>
<path d="M8.56635 5.99998C8.58405 5.86474 8.61946 5.7295 8.63716 5.59426C8.65486 5.5363 8.65486 5.47834 8.67256 5.42038V5.38174C9.15054 3.85546 10.3366 4.26118 11.3634 4.24186C11.7352 4.22254 12.1246 4.26118 12.4964 4.24186C12.815 4.22254 13.0806 4.29982 13.1514 4.68622C13.1691 5.57494 13.1868 6.46366 13.2045 7.35237C13.1868 7.87401 13.1691 8.37633 13.1691 8.89797C13.1337 10.0572 13.0983 11.2164 13.0806 12.3756C13.0275 12.4722 12.9921 12.5688 12.9389 12.6654C12.7619 12.6654 12.5849 12.6847 12.4079 12.6847C12.3547 12.4722 12.2131 12.3756 12.0184 12.3756C11.1156 12.3756 10.195 12.279 9.30986 12.4142C8.72567 12.5108 8.37161 12.4915 8.21229 11.8539C7.87594 11.9698 7.91134 13.0131 7.34485 12.1824C7.34485 12.0471 7.34485 11.9312 7.34485 11.796L7.36255 11.7573L7.32715 11.7187C7.38026 11.5448 7.45107 11.3709 7.50418 11.197C7.87594 11.197 8.14148 11.1004 7.99986 10.5788C7.89364 10.1538 8.03526 9.80601 8.3008 9.43893C9.06202 8.37633 9.06203 7.93197 8.40702 6.77278C8.44243 6.63754 8.47783 6.50229 8.49554 6.36706C8.69027 6.28978 8.70797 6.15454 8.56635 5.99998ZM8.79648 9.82533C8.74337 9.80601 8.69027 9.74805 8.65486 9.76737C8.61945 9.78669 8.58405 9.86397 8.60175 9.90261C8.61945 9.94125 8.69027 9.97989 8.72567 9.96057C8.77878 9.94125 8.77878 9.86397 8.79648 9.82533Z" fill="#FCFDFD"/>
<path d="M13.1512 4.70553C13.0804 4.31913 12.8148 4.24185 12.4962 4.26117C12.1244 4.28049 11.735 4.26117 11.3632 4.26117C10.3364 4.29981 9.16804 3.87477 8.67236 5.40105C8.72547 4.95669 8.79628 4.49301 8.84939 4.04865C10.3187 3.79749 11.7881 3.77817 13.2574 4.04865C13.2574 4.28049 13.3105 4.51233 13.1512 4.70553Z" fill="#F8E6BC"/>
<path d="M8.42458 6.79211C9.07958 7.95131 9.09728 8.41499 8.31836 9.45827C8.05282 9.82535 7.9112 10.1731 8.01741 10.5981C8.15904 11.1198 7.89349 11.2164 7.52173 11.2164C7.50403 11.1584 7.48633 11.0811 7.48633 11.0232C7.69876 10.1538 7.91119 9.28439 8.12363 8.41499C8.17674 8.55023 8.15903 8.76275 8.35377 8.76275C8.40687 8.76275 8.49539 8.64683 8.51309 8.58887C8.5485 8.29907 8.5839 7.98995 8.21214 7.93199C8.14133 7.52627 8.31836 7.17851 8.42458 6.79211Z" fill="#F4F8E9"/>
<path d="M3.04297 10.83C3.27311 10.6948 3.20229 10.2311 3.57405 10.2504C3.57405 10.3856 3.59176 10.5016 3.57405 10.6368C3.50324 11.0039 3.78649 11.6414 3.34392 11.6994C2.84824 11.7767 3.37932 11.0425 3.04297 10.83Z" fill="#F2681A"/>
<path d="M7.3625 11.8153C7.3625 11.9505 7.3625 12.0664 7.3625 12.2017C7.3448 12.3755 7.3271 12.5494 7.3094 12.7426C7.23859 12.7619 7.18548 12.7813 7.11467 12.7813C6.99075 12.7619 6.86683 12.7619 6.76061 12.7426C6.74291 12.2789 6.7429 11.7959 7.3625 11.8153Z" fill="#F66B2D"/>
<path d="M3.04302 10.83C2.75977 10.8879 2.77748 11.2743 2.52964 11.4289C2.51194 10.9845 2.44112 10.5402 2.88369 10.3663C3.04302 10.3277 3.00761 10.6561 3.04302 10.83Z" fill="#F2681A"/>
<path d="M8.19447 7.93195C8.56623 7.98991 8.53082 8.29902 8.49542 8.58882C8.47772 8.6661 8.3892 8.7627 8.33609 8.7627C8.14136 8.74338 8.17677 8.55018 8.10596 8.41494C8.14136 8.26039 8.15907 8.10583 8.19447 7.93195Z" fill="#FCFDFD"/>
<path d="M7.46877 11.0231C7.48647 11.0811 7.50418 11.1584 7.50418 11.2163C7.45107 11.3902 7.38026 11.5641 7.32715 11.738C7.29174 11.4868 7.23863 11.2163 7.46877 11.0231Z" fill="#F66B2D"/>
<path d="M8.56629 6C8.70792 6.15456 8.69021 6.27048 8.51318 6.3864C8.53089 6.27048 8.54859 6.13524 8.56629 6Z" fill="#F8E6BC"/>
<path d="M8.67249 5.42035C8.65479 5.47831 8.65479 5.53627 8.63709 5.59423C8.63709 5.55559 8.61938 5.49763 8.61938 5.45899C8.61938 5.45899 8.65479 5.43967 8.67249 5.42035Z" fill="#F8E6BC"/>
<path d="M23.3835 5.05331C23.8084 7.31374 24.2509 9.55486 24.6758 11.8153C24.7289 12.1244 24.7466 12.4529 24.7643 12.762C22.8347 12.762 20.9228 12.7426 18.9932 12.7426C18.9755 12.3562 18.9401 11.9699 18.9401 11.6028C18.887 9.1105 18.8339 6.61822 18.7808 4.10663L18.7985 4.12594C20.2501 4.12594 21.684 4.12594 23.1357 4.12594C23.1711 4.26118 23.2065 4.39642 23.2596 4.53166C23.3304 4.68622 23.3658 4.86011 23.3835 5.05331Z" fill="#FCF8F6"/>
<path d="M19.011 12.7233C20.9406 12.7233 22.8525 12.7426 24.7821 12.7426C24.906 12.7426 25.0299 12.762 25.1539 12.762C24.906 13.2643 24.4103 12.9358 24.074 13.129C23.9147 13.2063 23.7022 13.2063 23.6668 13.4188C23.6137 13.6893 23.8438 13.6893 24.0032 13.728C24.1271 13.7666 24.2333 13.8632 24.1448 13.9791C24.0563 14.0757 23.8793 14.0564 23.7553 14.095C23.1888 13.7086 22.5692 13.9598 21.9673 13.9212C21.7195 13.9018 21.6133 14.1144 21.6664 14.3848C21.7195 14.6553 21.9142 14.5587 22.0736 14.5394C22.4453 14.5008 22.8171 14.4814 23.2597 14.4621C23.1357 15.0031 22.8171 15.0224 22.463 15.061C21.6664 15.1383 20.9052 14.9451 20.1617 14.7133L20.1794 14.694C19.8784 14.1337 19.7545 13.4382 19.1172 13.187C19.0818 13.187 19.0464 13.1677 19.0287 13.1484C18.8339 13.187 18.7277 13.3222 18.6569 13.4961C18.6038 13.67 18.5684 13.9018 18.3206 13.7859C18.1258 13.6893 18.055 13.4575 18.0019 13.245C17.9488 13.0324 18.1081 12.9745 18.2498 12.9552C18.4445 12.9358 18.6569 12.9745 18.7985 12.7426C18.8694 12.7426 18.9402 12.7426 19.011 12.7233ZM22.1267 13.5927C21.8434 13.3995 21.7726 13.3416 21.7018 13.3029C21.2415 13.0711 20.7459 13.0904 20.2679 13.245C20.144 13.2836 20.0908 13.4575 20.1971 13.5541C20.5688 13.9018 21.0291 13.67 21.454 13.728C21.5779 13.728 21.7195 13.67 22.1267 13.5927Z" fill="#F23C15"/>
<path d="M26.7471 4.08723C26.7648 4.31907 26.871 4.43499 27.0834 4.47363C27.1011 4.80207 27.1188 5.13051 27.2781 5.42031C27.1365 5.84535 26.5877 5.76807 26.4815 6.23175C26.4815 6.25107 26.2691 6.27039 26.2691 6.25107C25.9858 5.26575 25.1184 5.78739 24.3926 5.40099C25.1538 5.26575 25.6849 5.05323 25.1715 4.24179C25.5787 4.14519 26.0035 4.06791 26.4107 3.97131C26.4992 4.02927 26.6231 4.06791 26.7471 4.08723ZM26.2691 4.31907C25.9858 4.39635 26.0035 4.68615 25.9504 4.91799C25.8796 5.18847 26.0743 5.22711 26.2691 5.20779C26.5346 5.18847 26.57 4.95663 26.5523 4.72479C26.5523 4.53159 26.5169 4.33839 26.2691 4.31907Z" fill="#FD6418"/>
<path d="M23.1712 4.0873C21.7195 4.0873 20.2856 4.0873 18.834 4.0873C18.834 3.56566 19.2057 3.7009 19.4713 3.7009C20.799 3.62362 22.1267 3.83614 23.4544 3.58498C23.72 3.52702 23.6846 3.77818 23.72 3.95206C23.596 3.95206 23.4898 3.97138 23.3659 3.97138C23.3128 3.93274 23.2597 3.91342 23.2597 4.01002C23.242 4.06798 23.2066 4.0873 23.1712 4.0873Z" fill="#F6D259"/>
<path d="M30.4647 12.5494C30.8896 13.5348 30.5001 14.1916 29.7566 14.694C29.7212 14.2496 29.8982 13.6893 29.1724 13.7086C28.96 13.7086 28.5528 13.8632 28.6236 13.3802C28.6945 12.9358 29.0131 12.9358 29.3672 13.0131C29.7566 13.1097 30.2169 13.4382 30.4647 12.7426C30.4647 12.704 30.4647 12.6267 30.4647 12.5494Z" fill="#F23C15"/>
<path d="M26.3931 3.99066C25.9859 4.08726 25.5611 4.16454 25.1539 4.26114C24.9061 4.20318 24.6051 4.35774 24.4458 3.99066C24.6405 3.62358 24.9946 3.87474 25.2778 3.75882C25.6673 3.62358 25.9505 3.48834 26.0922 2.98602C26.1984 3.33378 26.2869 3.66222 26.3931 3.99066Z" fill="#FCC01D"/>
<path d="M28.3403 12.7427C28.1102 12.7427 27.8623 12.7427 27.6322 12.7427C27.7384 12.221 27.2604 11.313 28.3403 11.4096C28.3403 11.854 28.3403 12.2983 28.3403 12.7427Z" fill="#FD6418"/>
<path d="M23.3836 5.05328C23.3482 4.8794 23.3127 4.68619 23.2773 4.51231C23.5606 4.55095 24.0209 4.26116 24.0209 4.82143C24.0386 5.28511 23.6845 5.20784 23.3836 5.05328Z" fill="#FD6418"/>
<path d="M29.4024 12.7426C29.2785 12.7426 29.1723 12.7426 29.0484 12.7426C29.1015 12.5301 28.9245 12.1437 29.2254 12.1437C29.5086 12.1437 29.3493 12.5301 29.4024 12.7426Z" fill="#F2681A"/>
<path d="M28.3404 11.4096C28.3758 11.1777 28.2342 10.8879 28.5706 10.7141C28.7122 11.0618 28.7653 11.313 28.3404 11.4096Z" fill="#F2681A"/>
<path d="M23.7908 4.06793C23.8262 4.06793 23.8439 4.06793 23.8793 4.06793C23.8439 4.18385 23.8085 4.18385 23.7908 4.06793Z" fill="#FCC01D"/>
<path d="M23.2598 4.02936C23.2775 3.93277 23.3129 3.93277 23.366 3.99073C23.3483 4.02937 23.3129 4.04868 23.2598 4.02936Z" fill="#FCC01D"/>
<path d="M19.011 12.7233C18.9402 12.7426 18.8517 12.7426 18.7809 12.7619C18.7278 12.7426 18.6746 12.7426 18.6215 12.7426C18.6215 10.2697 18.6215 7.81604 18.6038 5.34308C18.6038 4.93737 18.7101 4.45437 18.0905 4.47369C16.7627 4.47369 15.4527 4.47369 14.125 4.47369C13.9657 4.47369 13.6647 4.47368 13.771 4.72484C14.0719 5.34308 13.4169 5.88405 13.7533 6.5216C13.8772 6.77276 13.6116 7.25576 13.2045 7.37168C13.1868 6.48296 13.1691 5.59424 13.1514 4.70552C13.3107 4.51232 13.2576 4.28048 13.2576 4.04865C15.0987 4.06796 16.9398 4.06797 18.7986 4.08729C18.8517 6.57956 18.9048 9.07184 18.9579 11.5834C18.9756 11.9505 18.9933 12.3369 19.011 12.7233Z" fill="#F66B2D"/>
<path d="M7.29175 2.56104C7.34486 2.56104 7.39796 2.56104 7.46878 2.56104C7.39796 2.65763 7.34486 2.65763 7.29175 2.56104Z" fill="#FCC01D"/>
<path d="M25.8618 2.58038C25.9149 2.56106 25.968 2.56106 26.0211 2.5997C25.968 2.5997 25.9149 2.5997 25.8618 2.58038Z" fill="#FCC01D"/>
<path d="M24.4458 2.54169C24.4989 2.54169 24.552 2.54169 24.6228 2.54169C24.5697 2.65761 24.4989 2.65761 24.4458 2.54169Z" fill="#FCC01D"/>
<path d="M27.9864 15.4474C27.6678 14.6359 27.0482 15.2155 26.5879 15.061C26.6056 14.8291 26.5171 14.4621 26.9242 14.5973C27.2252 14.6939 27.4199 14.5973 27.6324 14.4041C27.8271 14.2302 27.9333 13.7859 28.3228 14.095C28.6591 14.3655 28.5352 14.6939 28.429 15.0417C28.3936 15.1383 28.3759 15.2155 28.3582 15.3121C28.3582 15.3508 28.3582 15.4087 28.3405 15.4474C28.2165 15.4474 28.1103 15.4474 27.9864 15.4474Z" fill="#F23C15"/>
<path d="M14.8862 29.3578C15.0101 29.2999 15.1163 29.2226 15.2402 29.1646C15.4173 29.1646 15.5943 29.1646 15.7713 29.1646C15.7713 29.2226 15.7713 29.2805 15.7713 29.3385C15.5943 29.5317 15.4173 29.7249 15.2402 29.9181C14.656 30.034 14.1604 29.7635 13.647 29.5317C14.0187 29.2033 14.479 29.4351 14.8862 29.3578Z" fill="#F4F4F4"/>
<path d="M27.6675 28.9907C27.7029 28.9134 27.756 28.8555 27.7914 28.7782C27.756 28.8555 27.7206 28.9134 27.6675 28.9907Z" fill="#F8E6BC"/>
<path d="M0.564697 12.7619C0.564697 12.704 0.564697 12.6267 0.564697 12.5687C0.5824 12.6074 0.617805 12.6653 0.635507 12.704C0.635507 12.7233 0.5824 12.7426 0.564697 12.7619Z" fill="#F4F4F4"/>
<path d="M29.562 10.2504C29.5443 10.2117 29.5089 10.1731 29.4912 10.1344C29.4912 10.1151 29.5266 10.0958 29.5266 10.0765C29.5443 10.1344 29.562 10.1924 29.562 10.2504Z" fill="#FA641B"/>
<path d="M7.11475 12.7813C7.18556 12.762 7.23867 12.7426 7.30948 12.7426C9.00895 12.7233 10.7084 12.7233 12.4256 12.704C12.6026 12.704 12.7796 12.6847 12.9567 12.6847L13.0275 12.7233H13.0983C13.0983 12.762 13.116 12.7813 13.1337 12.8199C13.0806 13.1677 13.7179 13.8439 12.7619 13.7473C12.6026 13.9405 12.4433 14.1337 12.284 14.3269C11.7529 14.211 11.2749 13.5734 10.6553 14.1144C10.4606 13.9791 10.2658 13.7666 10.6553 13.7473C11.0979 13.728 11.4165 13.5541 11.7529 13.1484C11.1864 13.2063 10.5137 13.4188 10.2304 13.3222C9.20368 12.9745 8.053 13.5155 7.11475 12.7813Z" fill="#F23C15"/>
<path d="M11.3635 15.0996C10.6908 15.0996 10.0181 15.0996 9.36306 15.0803C8.9559 15.0803 8.60184 14.8098 8.67265 14.4234C8.72576 14.1143 8.92049 13.612 9.45158 13.7279C9.50468 13.7472 9.6109 13.7279 9.6109 13.7279C9.64631 15.003 10.8147 14.1723 11.2042 14.7519C11.2927 14.8485 11.3104 14.9837 11.3635 15.0996Z" fill="#F23C15"/>
<path d="M10.6553 14.1143C10.7261 14.1336 10.797 14.153 10.8678 14.1916C10.7438 14.3655 10.7084 14.1916 10.6553 14.1143Z" fill="#F23C15"/>
<path d="M12.7441 13.7473C13.7001 13.8439 13.0805 13.1677 13.1159 12.82C13.169 12.7813 13.2221 12.762 13.2752 12.7427C15.0455 12.7427 16.8335 12.7427 18.6038 12.7427C18.6569 12.7427 18.71 12.762 18.7631 12.762C18.6215 12.9745 18.409 12.9359 18.2143 12.9745C18.055 12.9938 17.9134 13.0518 17.9665 13.2643C18.0196 13.4768 18.0904 13.7087 18.2851 13.8053C18.533 13.9405 18.5684 13.6894 18.6215 13.5155C18.6923 13.3223 18.8162 13.2064 18.9932 13.1677C18.0904 15.7566 15.2933 16.3748 13.5939 14.3269C13.346 14.0178 13.0097 13.9792 12.7441 13.7473ZM14.0187 13.9405C14.0541 14.3269 14.2489 14.636 14.5498 14.6554C15.3819 14.694 16.2139 15.0418 17.0459 14.7133C17.2407 14.636 17.5062 14.6167 17.4531 14.3269C17.4 14.0178 17.1167 14.0951 16.9397 14.1337C15.9484 14.3076 15.0101 14.0371 14.0187 13.9405Z" fill="#E84106"/>
<path d="M19.0996 13.2063C19.7546 13.4575 19.8785 14.1723 20.1618 14.7133C19.4891 14.4814 19.2235 13.9211 19.0996 13.2063Z" fill="#E84106"/>
<path d="M25.1714 20.1229C25.1714 21.7071 25.1714 23.2913 25.1537 24.8756C25.0829 24.8949 25.0298 24.9142 24.959 24.9335C22.6045 24.9335 20.25 24.9142 17.9132 24.9142L17.9309 24.8949C18.0018 23.3686 17.7539 21.8423 18.0726 20.3354C18.3735 20.2195 18.6745 20.1229 18.9577 20.0069C19.6127 20.7604 20.25 20.4513 20.8873 19.949C21.3122 20.857 21.8256 20.2774 22.3212 20.0456C23.0825 20.6831 23.8437 20.4513 24.6049 20.0649C24.7996 20.0842 24.9767 20.1035 25.1714 20.1229Z" fill="#522D24"/>
<path d="M24.6228 20.0649C23.8616 20.4513 23.1003 20.6831 22.3391 20.0456C22.3391 19.949 22.3391 19.8331 22.3391 19.7365C22.4099 19.7365 22.463 19.7171 22.5338 19.7171C23.1003 19.7171 23.6668 19.6978 24.2333 19.6978C24.3572 19.8137 24.4812 19.9297 24.6228 20.0649Z" fill="#F23C15"/>
<path d="M22.5163 19.6978C22.4454 19.6978 22.3923 19.7172 22.3215 19.7172C22.1445 19.6978 21.9675 19.6978 21.7904 19.6785C21.7904 19.466 21.8081 19.2342 21.8081 19.0216C21.8258 18.7125 22.1799 18.2295 21.7373 18.1716C21.3656 18.1329 21.2417 18.6739 21.2771 19.1182C21.2948 19.3114 21.2771 19.5046 21.2771 19.6785C21.1531 19.6978 21.0469 19.6978 20.923 19.7172C20.8522 19.6978 20.7991 19.6978 20.7283 19.6785C20.7283 19.6206 20.7283 19.5433 20.6929 19.4853C20.7106 19.2342 20.7283 18.983 20.746 18.7318C20.7814 18.6932 20.8345 18.6352 20.8699 18.5966C20.8345 18.5773 20.7991 18.5386 20.746 18.5193C20.746 18.2682 20.746 18.017 20.746 17.7852C20.7991 17.7079 20.8699 17.6499 20.923 17.5726C21.4187 17.5147 21.9321 17.7079 22.41 17.4181C22.4454 18.1909 22.4809 18.9444 22.5163 19.6978Z" fill="#F2681A"/>
<path d="M17.9136 24.9142C20.268 24.9142 22.6225 24.9335 24.9593 24.9335C24.7469 25.1847 24.4636 25.1074 24.2158 25.1074C22.357 25.1074 20.4982 25.1074 18.6394 25.1074C18.3916 25.1267 18.1083 25.204 17.9136 24.9142Z" fill="#F23C15"/>
<path d="M20.7281 17.8045C20.7281 18.0556 20.7281 18.3068 20.7281 18.5386C20.7281 18.6159 20.7281 18.6932 20.7281 18.7705C20.7104 19.0216 20.6927 19.2728 20.675 19.5239C20.1439 19.4273 19.5243 19.7751 19.1172 19.1375C19.064 18.6739 19.2588 18.2488 19.365 17.8045C19.7899 17.5919 20.1793 17.3021 20.675 17.4181C20.7104 17.476 20.7281 17.5147 20.7281 17.5726C20.7458 17.6499 20.7458 17.7272 20.7281 17.8045Z" fill="#FCF8F6"/>
<path d="M18.958 20.0069C18.6571 20.1228 18.3561 20.2194 18.0729 20.3353C17.7719 20.316 17.4887 20.2581 17.3647 19.9103C17.8604 19.5046 18.4446 19.8137 18.9757 19.6978C18.958 19.8137 18.958 19.9103 18.958 20.0069Z" fill="#E84106"/>
<path d="M19.1173 19.1182C19.5245 19.7558 20.1441 19.408 20.6752 19.5046C20.7106 19.5626 20.7106 19.6205 20.7106 19.6978C20.1264 19.6978 19.5422 19.6978 18.958 19.7171C19.0288 19.5046 19.0642 19.3114 19.1173 19.1182Z" fill="#F8E6BC"/>
<path d="M20.728 17.8045C20.728 17.7272 20.728 17.6499 20.728 17.5726C20.7811 17.5726 20.8342 17.5726 20.9051 17.592C20.8519 17.6499 20.7988 17.7272 20.728 17.8045Z" fill="#F8E6BC"/>
<path d="M18.6214 12.7426C16.8511 12.7426 15.0631 12.7426 13.2929 12.7426C13.2398 11.4675 13.4522 10.1924 13.1689 8.91729C13.1866 8.39565 13.2044 7.89333 13.2044 7.37169C13.6115 7.25577 13.8948 6.77277 13.7531 6.52161C13.4168 5.88405 14.0718 5.32377 13.7708 4.72485C13.6469 4.47369 13.9656 4.47369 14.1249 4.47369C15.4526 4.47369 16.7626 4.47369 18.0903 4.47369C18.7099 4.47369 18.6037 4.95669 18.6037 5.34309C18.6214 7.79673 18.6214 10.2697 18.6214 12.7426ZM17.9664 5.13057C17.9841 4.89873 17.8602 4.86009 17.754 4.87941C17.6655 4.87941 17.5061 4.93737 17.4884 5.01465C17.4353 5.18853 17.5947 5.20785 17.7009 5.20785C17.7894 5.20785 17.8956 5.14989 17.9664 5.13057Z" fill="#FD6418"/>
<path d="M12.4257 12.7041C10.7262 12.7234 9.02674 12.7234 7.30957 12.7427C7.32727 12.5688 7.34497 12.3949 7.36268 12.2017C7.92917 13.0325 7.89376 11.9892 8.23012 11.8733C8.38944 12.5108 8.7435 12.5302 9.32769 12.4336C10.2128 12.2983 11.1334 12.3949 12.0362 12.3949C12.231 12.3949 12.3726 12.4722 12.4257 12.7041Z" fill="#F4F8E9"/>
<path d="M13.1691 8.91724C13.4523 10.1924 13.2222 11.4675 13.293 12.7426C13.2399 12.7619 13.1868 12.7812 13.1337 12.8199C13.116 12.8005 13.0983 12.7619 13.0983 12.7233C13.0983 12.6073 13.0983 12.5107 13.0806 12.3948C13.116 11.2356 13.1337 10.0764 13.1691 8.91724Z" fill="#F66B2D"/>
<path d="M8.79661 9.82533C8.77891 9.88329 8.7612 9.96058 8.7258 9.96058C8.69039 9.9799 8.60188 9.94126 8.60188 9.90262C8.58417 9.86398 8.61958 9.76738 8.65499 9.76738C8.70809 9.74806 8.7612 9.80601 8.79661 9.82533Z" fill="#F4F8E9"/>
<path d="M13.0805 12.3755C13.0805 12.4915 13.0805 12.5881 13.0982 12.704H13.0274L12.9565 12.6653C12.9919 12.5881 13.0274 12.4721 13.0805 12.3755Z" fill="#F4F8E9"/>
<path d="M22.1267 13.5927C21.7195 13.67 21.5779 13.728 21.454 13.7087C21.0291 13.67 20.5865 13.8825 20.1971 13.5348C20.0909 13.4382 20.1617 13.2643 20.2679 13.2257C20.7459 13.0711 21.2238 13.0518 21.7018 13.2836C21.7726 13.3416 21.8434 13.3995 22.1267 13.5927Z" fill="#E84106"/>
<path d="M26.2692 4.31915C26.517 4.33847 26.5524 4.53167 26.5524 4.72487C26.5524 4.95671 26.5347 5.18855 26.2692 5.20787C26.0921 5.22719 25.8797 5.18855 25.9505 4.91807C26.0036 4.68623 25.9859 4.39643 26.2692 4.31915Z" fill="#F66B2D"/>
<path d="M14.0188 13.9404C15.0102 14.037 15.9661 14.3268 16.9398 14.1336C17.1168 14.095 17.4 14.0177 17.4531 14.3268C17.5063 14.6166 17.2407 14.6359 17.046 14.7132C16.1962 15.0417 15.3819 14.6939 14.5499 14.6553C14.2489 14.6166 14.0542 14.3268 14.0188 13.9404Z" fill="#F23C15"/>
<path d="M18.958 19.7171C19.5422 19.7171 20.1264 19.7171 20.7106 19.6978C20.7814 19.7171 20.8345 19.7171 20.9053 19.7365C20.9053 19.8137 20.8876 19.891 20.8876 19.9683C20.2503 20.4513 19.613 20.7797 18.958 20.0263C18.958 19.9103 18.958 19.8137 18.958 19.7171Z" fill="#F23C15"/>
<path d="M20.8875 19.949C20.8875 19.8717 20.9052 19.7944 20.9052 19.7172C21.0291 19.6979 21.1353 19.6978 21.2592 19.6785C21.4362 19.6785 21.6133 19.6785 21.7726 19.6785C21.9496 19.6978 22.1266 19.6979 22.3037 19.7172C22.3037 19.8138 22.3037 19.9297 22.3037 20.0263C21.8434 20.2775 21.33 20.8764 20.8875 19.949Z" fill="#E84106"/>
<path d="M21.7902 19.6978C21.6131 19.6978 21.4361 19.6978 21.2768 19.6978C21.2768 19.5046 21.2768 19.3114 21.2768 19.1375C21.2414 18.6932 21.3653 18.1522 21.7371 18.1909C22.1973 18.2488 21.8256 18.7318 21.8079 19.0409C21.7902 19.2535 21.7902 19.466 21.7902 19.6978Z" fill="#F66B2D"/>
<path d="M20.7458 18.7704C20.7458 18.6931 20.7458 18.6159 20.7458 18.5386C20.7813 18.5579 20.8167 18.5965 20.8698 18.6159C20.8167 18.6738 20.7813 18.7125 20.7458 18.7704Z" fill="#F8E6BC"/>
<path d="M17.9666 5.13056C17.8957 5.14988 17.7895 5.20783 17.701 5.20783C17.5948 5.20783 17.4355 5.18851 17.4886 5.01463C17.5063 4.93735 17.6656 4.8794 17.7541 4.8794C17.8603 4.86008 17.9843 4.89872 17.9666 5.13056Z" fill="#F66B2D"/>
</svg>
