<svg width="23" height="23" viewBox="0 0 23 23" fill="none" xmlns="http://www.w3.org/2000/svg">
<path d="M22.5 6V9H21V20.25C21 20.5156 20.9883 20.7812 20.9648 21.0469C20.9414 21.3125 20.8789 21.5547 20.7773 21.7734C20.6758 21.9922 20.5273 22.168 20.332 22.3008C20.1367 22.4336 19.8594 22.5 19.5 22.5C19.3047 22.5 19.0977 22.5039 18.8789 22.5117C18.6602 22.5195 18.4375 22.5156 18.2109 22.5C17.9844 22.4844 17.7695 22.4531 17.5664 22.4062C17.3633 22.3594 17.1797 22.2773 17.0156 22.1602C16.8516 22.043 16.7266 21.8945 16.6406 21.7148C16.5547 21.5352 16.5078 21.2969 16.5 21H6C6 21.2109 5.96094 21.4062 5.88281 21.5859C5.80469 21.7656 5.69922 21.9219 5.56641 22.0547C5.43359 22.1875 5.27344 22.2969 5.08594 22.3828C4.89844 22.4688 4.70312 22.5078 4.5 22.5C3.96094 22.5 3.5 22.4961 3.11719 22.4883C2.73438 22.4805 2.42578 22.4141 2.19141 22.2891C1.95703 22.1641 1.78125 21.9453 1.66406 21.6328C1.54688 21.3203 1.49219 20.8594 1.5 20.25V9H0V6H1.5V2.25C1.5 1.9375 1.55859 1.64453 1.67578 1.37109C1.79297 1.09766 1.95312 0.859375 2.15625 0.65625C2.35938 0.453125 2.59766 0.292969 2.87109 0.175781C3.14453 0.0585938 3.4375 0 3.75 0H18.75C19.0625 0 19.3555 0.0585938 19.6289 0.175781C19.9023 0.292969 20.1406 0.453125 20.3438 0.65625C20.5469 0.859375 20.707 1.09766 20.8242 1.37109C20.9414 1.64453 21 1.9375 21 2.25V6H22.5ZM19.5 13.5H3V16.5H4.5V16.0312C4.5 15.8594 4.51562 15.6953 4.54688 15.5391C4.57812 15.3828 4.64844 15.2539 4.75781 15.1523C4.86719 15.0508 5.03125 15 5.25 15C5.46875 15 5.62891 15.0508 5.73047 15.1523C5.83203 15.2539 5.90625 15.3789 5.95312 15.5273C6 15.6758 6.01953 15.8398 6.01172 16.0195C6.00391 16.1992 6 16.3594 6 16.5H16.5V16.0312C16.5 15.8594 16.5156 15.6953 16.5469 15.5391C16.5781 15.3828 16.6484 15.2539 16.7578 15.1523C16.8672 15.0508 17.0312 15 17.25 15C17.4688 15 17.6289 15.0508 17.7305 15.1523C17.832 15.2539 17.9062 15.3789 17.9531 15.5273C18 15.6758 18.0195 15.8398 18.0117 16.0195C18.0039 16.1992 18 16.3594 18 16.5H19.5V13.5ZM10.5 12V6H3V12H10.5ZM19.5 6H12V12H19.5V6ZM3.75 1.5C3.54688 1.5 3.37109 1.57422 3.22266 1.72266C3.07422 1.87109 3 2.04688 3 2.25V4.5H19.5V2.25C19.5 2.04688 19.4258 1.87109 19.2773 1.72266C19.1289 1.57422 18.9531 1.5 18.75 1.5H3.75ZM19.5 19.5V18H3V19.5H19.5Z" fill="#6E6E6E"/>
</svg>
